<svg xmlns="http://www.w3.org/2000/svg" width="430" height="435" viewBox="0 0 430 435">
<g>
<path d="M 296.05 425.16 C288.02,430.29 281.27,428.38 276.85,419.71 C274.84,415.77 274.70,412.94 273.13,346.56 L 271.50 277.50 L 261.50 276.90 C223.86,274.63 191.42,249.93 180.19,215.00 C176.61,203.86 175.73,196.82 176.26,183.79 C176.96,166.72 181.65,151.04 189.70,138.88 C192.01,135.39 192.69,135.00 196.51,135.00 C201.70,135.00 207.57,137.32 208.96,139.93 C210.92,143.59 210.04,148.73 206.00,157.15 C193.61,182.98 198.60,211.92 219.00,232.60 C232.58,246.36 254.36,255.23 270.58,253.59 C294.17,251.21 317.15,236.70 326.33,218.39 C334.31,202.44 336.35,182.64 331.46,168.48 C325.54,151.33 317.41,140.82 302.67,131.29 L 292.76 124.88 L 293.41 120.83 C294.56,113.66 300.37,105.00 304.04,105.00 C307.16,105.00 324.01,116.50 331.16,123.51 C343.72,135.82 349.85,145.80 354.62,161.70 C356.82,169.05 357.27,172.56 357.35,183.00 C357.44,196.18 356.44,202.67 352.40,215.10 C347.69,229.63 340.92,240.56 329.30,252.43 C322.49,259.39 315.13,264.35 304.61,269.08 L 297.00 272.50 L 297.00 281.17 C297.00,285.94 297.66,303.26 298.47,319.67 C299.27,336.08 300.14,353.70 300.39,358.84 C300.64,363.98 301.11,368.45 301.43,368.76 C301.75,369.08 311.12,360.37 322.26,349.41 C333.39,338.45 345.65,326.94 349.50,323.83 C358.52,316.56 369.91,310.51 377.50,308.96 C381.47,308.15 384.26,306.92 385.75,305.31 L 388.00 302.89 L 388.00 183.91 C388.00,179.57 388.00,175.38 388.00,171.34 C388.01,68.15 388.01,60.66 384.33,57.65 C383.90,57.30 383.42,57.01 382.88,56.63 C380.76,55.14 367.91,55.00 234.49,55.00 L 88.42 55.00 L 83.97 57.25 C77.97,60.28 75.29,64.58 74.59,72.29 C73.59,83.47 72.06,290.31 72.93,297.75 C73.85,305.70 77.17,311.55 81.29,312.49 C82.51,312.77 89.29,313.11 96.37,313.25 C106.98,313.46 109.38,313.24 110.02,312.00 C110.45,311.17 112.22,307.48 113.95,303.78 C118.04,295.05 123.60,288.10 130.70,282.85 C150.13,268.49 178.10,267.48 197.60,280.43 C227.32,300.17 232.84,340.94 209.32,366.94 C198.32,379.09 184.46,385.84 168.67,386.75 C143.51,388.19 118.38,370.71 110.55,346.31 L 108.88 341.12 L 95.69 341.11 C88.43,341.10 79.82,340.63 76.55,340.07 C64.15,337.92 53.71,330.22 48.32,319.24 L 45.50 313.50 L 45.53 195.50 C45.57,69.11 46.01,54.90 50.09,46.74 C53.01,40.92 56.60,37.28 62.50,34.19 L 67.50 31.56 L 110.50 30.88 C134.15,30.51 207.53,30.16 273.57,30.10 C277.19,30.10 280.71,30.10 284.13,30.09 C391.52,30.00 399.70,29.99 404.91,33.92 C405.50,34.36 406.06,34.86 406.72,35.42 C408.27,36.72 410.63,39.98 411.97,42.65 L 414.40 47.50 L 414.76 173.50 C414.96,242.80 415.11,303.29 415.08,307.92 C415.03,319.17 412.93,326.04 407.87,331.52 C403.15,336.65 398.78,338.47 386.50,340.43 C371.61,342.81 362.48,347.05 352.36,356.30 C344.72,363.28 338.37,371.47 325.46,390.99 C314.09,408.17 303.63,420.32 296.05,425.16 ZM 155.84 361.67 C158.18,362.54 162.38,362.91 167.50,362.69 C177.46,362.26 183.36,359.48 190.60,351.83 C202.86,338.86 203.27,319.30 191.55,306.26 C175.23,288.11 145.54,292.42 135.01,314.47 C129.41,326.21 131.61,341.35 140.44,351.77 C143.41,355.27 149.91,359.45 155.84,361.67 Z" fill="rgb(13,182,247)"/>
<path d="M 0.00 217.50 L 0.00 0.00 L 215.00 0.00 L 430.00 0.00 L 430.00 217.50 L 430.00 435.00 L 215.00 435.00 L 0.00 435.00 L 0.00 217.50 ZM 296.05 425.16 C303.63,420.32 314.09,408.17 325.46,390.99 C338.37,371.47 344.72,363.28 352.36,356.30 C362.48,347.05 371.61,342.81 386.50,340.43 C398.78,338.47 403.15,336.65 407.87,331.52 C412.93,326.04 415.03,319.17 415.08,307.92 C415.11,303.29 414.96,242.80 414.76,173.50 L 414.40 47.50 L 411.97 42.65 C410.63,39.98 408.27,36.72 406.72,35.42 C400.09,29.83 404.00,29.99 273.57,30.10 C207.53,30.16 134.15,30.51 110.50,30.88 L 67.50 31.56 L 62.50 34.19 C56.60,37.28 53.01,40.92 50.09,46.74 C46.01,54.90 45.57,69.11 45.53,195.50 L 45.50 313.50 L 48.32 319.24 C53.71,330.22 64.15,337.92 76.55,340.07 C79.82,340.63 88.43,341.10 95.69,341.11 L 108.88 341.12 L 110.55 346.31 C118.38,370.71 143.51,388.19 168.67,386.75 C184.46,385.84 198.32,379.09 209.32,366.94 C232.84,340.94 227.32,300.17 197.60,280.43 C178.10,267.48 150.13,268.49 130.70,282.85 C123.60,288.10 118.04,295.05 113.95,303.78 C112.22,307.48 110.45,311.17 110.02,312.00 C109.38,313.24 106.98,313.46 96.37,313.25 C89.29,313.11 82.51,312.77 81.29,312.49 C77.17,311.55 73.85,305.70 72.93,297.75 C72.06,290.31 73.59,83.47 74.59,72.29 C75.29,64.58 77.97,60.28 83.97,57.25 L 88.42 55.00 L 234.49 55.00 C367.91,55.00 380.76,55.14 382.88,56.63 C388.19,60.34 388.00,55.73 388.00,183.91 L 388.00 302.89 L 385.75 305.31 C384.26,306.92 381.47,308.15 377.50,308.96 C369.91,310.51 358.52,316.56 349.50,323.83 C345.65,326.94 333.39,338.45 322.26,349.41 C311.12,360.37 301.75,369.08 301.43,368.76 C301.11,368.45 300.64,363.98 300.39,358.84 C300.14,353.70 299.27,336.08 298.47,319.67 C297.66,303.26 297.00,285.94 297.00,281.17 L 297.00 272.50 L 304.61 269.08 C315.13,264.35 322.49,259.39 329.30,252.43 C340.92,240.56 347.69,229.63 352.40,215.10 C356.44,202.67 357.44,196.18 357.35,183.00 C357.27,172.56 356.82,169.05 354.62,161.70 C349.85,145.80 343.72,135.82 331.16,123.51 C324.01,116.50 307.16,105.00 304.04,105.00 C300.37,105.00 294.56,113.66 293.41,120.83 L 292.76 124.88 L 302.67 131.29 C317.41,140.82 325.54,151.33 331.46,168.48 C336.35,182.64 334.31,202.44 326.33,218.39 C317.15,236.70 294.17,251.21 270.58,253.59 C254.36,255.23 232.58,246.36 219.00,232.60 C198.60,211.92 193.61,182.98 206.00,157.15 C210.04,148.73 210.92,143.59 208.96,139.93 C207.57,137.32 201.70,135.00 196.51,135.00 C192.69,135.00 192.01,135.39 189.70,138.88 C181.65,151.04 176.96,166.72 176.26,183.79 C175.73,196.82 176.61,203.86 180.19,215.00 C191.42,249.93 223.86,274.63 261.50,276.90 L 271.50 277.50 L 273.13 346.56 C274.70,412.94 274.84,415.77 276.85,419.71 C281.27,428.38 288.02,430.29 296.05,425.16 ZM 155.84 361.67 C149.91,359.45 143.41,355.27 140.44,351.77 C131.61,341.35 129.41,326.21 135.01,314.47 C145.54,292.42 175.23,288.11 191.55,306.26 C203.27,319.30 202.86,338.86 190.60,351.83 C183.36,359.48 177.46,362.26 167.50,362.69 C162.38,362.91 158.18,362.54 155.84,361.67 Z" fill="rgb(253,254,254)"/>
</g>
</svg>