<svg xmlns="http://www.w3.org/2000/svg" width="860" height="870"><path fill="#12B4F2" d="M767.56 63.53c-1.7 1.28-32.12 1.47-239.08 1.47-130.43 0-237.42-.28-237.76-.62-.34-.33-2.1-.96-3.92-1.39-.01-.01-.02-.01-.02-.01 0-.43 107.18-.81 239.72-.85 213.87-.06 242.77.11 241.06 1.4M144.21 673.98c.53 3.61.02 3.66-7.3.61-7.9-3.28-16.32-8.88-23.21-15.45-7.12-6.78-10.45-11.46-16.85-23.74L92 626.11l.14-148.81c.08-81.84.44-183.68.81-226.3l.65-77.5.24 64.5c.12 35.48.32 138.22.44 228.32l.22 163.82 3.26 2.68c2.14 1.76 3.25 3.56 3.25 5.24-.01 1.41.92 3.56 2.05 4.78 1.14 1.21 2.24 3.1 2.45 4.19.53 2.76 1.48 4.1 2.47 3.48 1.46-.9 4.02.64 4.02 2.42 0 2.62 7.24 6.94 10.56 6.3 2.87-.55 2.99.06.95 5.02-.62 1.5-.13 1.75 3.48 1.75 3.42 0 4.75.58 7.11 3.11 2.5 2.68 3.38 3.02 6.29 2.48 3.17-.6 3.4-.45 3.82 2.39m2.17-71.23c.64 3.82.56 5.25-.28 5.25-.64 0-1.31-.56-1.49-1.25-2.5-9.39-2.65-15.35-2.62-104.77.02-51.61.31-95.9.66-98.41.34-2.51 1.12-4.57 1.74-4.57.81 0 1.11 26.97 1.11 99.25 0 54.59.4 101.61.88 104.5M656 772.86c-1.38 2.27-2.73 4.13-3.01 4.13-.73.01-2.99-3.77-2.99-5 0-.57 1.16-1.56 2.58-2.21s3.41-2.8 4.43-4.79c1.01-1.99 3.3-5.17 5.09-7.05 1.85-1.96 3.5-4.95 3.83-6.94.45-2.71 1.3-3.82 3.77-4.91 1.77-.78 3.71-2.66 4.36-4.23.64-1.56 4.27-6.01 8.05-9.91 3.79-3.89 6.89-7.74 6.89-8.56 0-.81 1.19-2.67 2.63-4.12 1.45-1.44 2.95-3.79 3.32-5.2.46-1.71 1.49-2.68 3.12-2.91 1.34-.18 3.63-1.47 5.1-2.85 1.47-1.39 3.12-2.25 3.68-1.9 1.02.63 2.61-1.1 2.63-2.88.01-.53.94-1.43 2.07-2s5.05-2.98 8.71-5.37c3.66-2.38 7.1-4.05 7.66-3.71.56.35 1.59-.29 2.29-1.41s1.96-2.04 2.8-2.04c.85 0 5.04-1.35 9.33-3 4.28-1.65 8.45-3 9.27-3 .81 0 2.35-.82 3.43-1.82 2.83-2.64 10.77-6.42 11.95-5.69.56.35 1.01 1.28 1.01 2.07 0 .88 1 1.44 2.56 1.44 1.41 0 2.29-.44 1.96-.97s.43-1.19 1.69-1.45c4.82-1.01 10.43-1.66 13.93-1.61 2.36.04 3.84-.47 4.22-1.45.32-.84 1.43-1.52 2.47-1.52s3.59-1.34 5.66-2.99c2.53-2.02 4.46-2.81 5.91-2.45 1.48.38 2.9-.25 4.55-2.01 1.32-1.4 2.11-2.55 1.75-2.55-.73 0 3.64-6.64 5.9-8.96.82-.85 2.11-2.44 2.86-3.54.76-1.1 1.68-1.7 2.05-1.33 1.23 1.24-8.39 14.57-13.72 19.02-8.25 6.88-15.81 9.56-37.79 13.38-26.75 4.64-46.81 12.93-60.83 25.13-13.13 11.43-26.97 26.13-32.74 34.8-6.39 9.58-14.1 20.48-15.92 22.49-1.01 1.11-2.32 2.86-2.92 3.89s-2.21 3.72-3.59 5.98m-257.3-89.73c-2.22 3.88-4.49 5.37-3.24 2.12 4.8-12.43 5-13.57 4.99-28.75 0-13.74-.22-15.57-2.6-21.74-1.43-3.71-4.12-9.31-5.97-12.45-4.4-7.44-15.86-18.92-23.15-23.19-6.88-4.04-21.48-9.12-26.19-9.12-1.86 0-3.6-.56-3.88-1.25-.35-.85-.77-.92-1.33-.2-.46.59-5.49 1.17-11.31 1.32-5.76.15-10.94.61-11.5 1.03-.56.43-3.94 1.83-7.52 3.12-3.58 1.28-8.99 3.97-12.04 5.97-3.04 2-6.24 3.91-7.12 4.24-2.38.91-13.52 14.95-16.22 20.45-3.72 7.54-5.46 11.66-5.8 13.74-.6 3.63-2.82 2.97-2.82-.84 0-2.91-.37-3.58-2-3.58-1.33 0-2-.67-2-2 0-2.47 1.54-2.6 2.95-.25.99 1.65 1.14 1.64 2.55-.19.82-1.07 1.5-2.77 1.5-3.78s.65-2.09 1.45-2.4 1.96-2.09 2.58-3.97c.62-1.87 1.56-3.41 2.1-3.41s1.44-1.33 2.01-2.96c.56-1.63 1.78-3.2 2.69-3.5.92-.3 5.03-4.36 9.13-9.04 7.19-8.19 7.62-8.5 11.75-8.5 2.36 0 4.47.11 4.69.25.21.14 1.28-.55 2.36-1.53s2.97-1.98 4.21-2.21c1.23-.24 2.75-.86 3.38-1.38s2.95-1.23 5.15-1.56c2.2-.34 6.99-1.12 10.63-1.73 5.7-.96 6.96-.89 8.94.49 1.7 1.19 2.64 1.33 3.61.52 1.81-1.5 5.88-.54 13.97 3.32 3.77 1.8 7.38 3.16 8.03 3.02.64-.13 2.31.89 3.69 2.27 1.65 1.65 3.11 2.29 4.24 1.86 1.08-.42 1.48-.27 1.07.4-.89 1.44 1.65 3.38 4.89 3.74 1.46.16 2.94.71 3.29 1.23s2.66 3.62 5.14 6.89 5.5 7.29 6.73 8.93c2.69 3.61 8.46 15.21 8.94 17.99.19 1.1.85 3.23 1.45 4.74.63 1.54.83 4.6.47 7-.48 3.22-.15 5.21 1.36 8.16 1.75 3.44 1.83 4.2.61 6.5-.75 1.43-1.89 5.7-2.52 9.49s-2.13 8.62-3.34 10.74m379.32-301.39c.03 119.63-.18 217.76-.48 218.05-.3 0-.54-97.93-.55-217.87 0-207.11-.52-253.16-2.89-257.8-.45-.89-1.08-3.31-1.4-5.37-.53-3.48-.39-3.75 1.89-3.75 3.07 0 4.14 2.42 2.01 4.55-1.94 1.93-1.95 2.41-.07 4.89.81 1.07 1.47 3.12 1.47 4.56s.66 3.49 1.47 4.56c.85 1.13 1.48 4.18 1.5 7.28.03 4.52-.28 5.43-1.97 5.87-1.62.42-2 1.36-2 4.97 0 2.47.41 4.18.93 3.86 1.5-.92 2.21 2.97 1.08 5.94-.72 1.89-1.03 71.31-.99 220.26m-116.14-60.97c.64 1.2.5 2.56-.43 4.25-.82 1.47-1.4 1.87-1.42.98-.08-2.86-9.9-21.1-15.7-29.16-7.71-10.71-21.77-23.89-35.06-32.85-5.92-3.99-12.04-8.32-13.6-9.62-1.55-1.3-3.39-2.37-4.09-2.37s-2.01-.82-2.92-1.83c-1.42-1.57-1.51-2.66-.6-7.75 1.39-7.77 8.04-21.39 12.97-26.58 3.79-3.98 4.08-4.1 8.66-3.47 2.62.36 6.47 1.85 8.63 3.35 2.15 1.49 4.73 3.17 5.75 3.74 3.47 1.95 18.42 12.47 23.43 16.48 2.75 2.2 7.25 5.75 10 7.89 2.75 2.13 8.22 7.43 12.16 11.78 3.94 4.34 7.5 8.23 7.93 8.65.42.42-.78.46-2.66.1-5.15-1-8.35-3.94-8.93-8.19-.22-1.62-.33-2.54-.85-3-.68-.6-2.08-.38-5.38.13l-.27.04c-1 .16-1.1-1.11-.38-4.76.29-1.44-.4-2.12-2.75-2.74-1.75-.47-4.3-2.38-5.8-4.34-1.47-1.92-3.27-3.5-4-3.5s-1.88-.67-2.56-1.49-1.64-1.24-2.13-.94c-.48.3-1.32-.6-1.86-2.01-.64-1.69-1.74-2.57-3.25-2.59-2.21-.03-7.76-4.08-7.78-5.67-.01-1.24-5.9-4.3-8.32-4.32-2.97-.02-4.37-1.06-5.54-4.13-.89-2.34-1.52-2.62-5.98-2.62-4.29 0-5.39.44-7.94 3.14-1.79 1.9-3.19 4.67-3.55 7.05-.39 2.6-1.61 4.86-3.62 6.7-2.75 2.5-3.51 4.56-3.28 8.83.05.8-.57 2.72-1.38 4.28-1.62 3.13-1.14 4.75 1.43 4.81.93.02 3.25 1.37 5.15 3 1.91 1.63 4.19 2.96 5.07 2.96s2.96 1.46 4.61 3.25 5.39 4.6 8.31 6.25c2.91 1.65 6.62 4.12 8.24 5.5 5.25 4.46 18.81 17.96 18.82 18.74.01.65 3.97 5.37 9.43 11.27.77.83 1.71 2.72 2.08 4.21.37 1.48 1.28 3.2 2.02 3.82.74.61 2.09 3.33 2.99 6.04.89 2.7 2.03 4.92 2.52 4.92.48 0 1.31.79 1.83 1.77M607.78 739c-2.36 1.38-4.5 2.61-4.78 2.73-1.61.76-3.45-2.25-4.2-6.89-1.95-11.97-2.13-17.84-.54-17.84 1.19 0 1.65 2.16 2.22 10.5.39 5.78 1.14 10.76 1.66 11.09 1.54.95 5.9-2.93 35.73-31.71 41.87-40.41 59.79-56.95 68.13-62.9 8.64-6.17 23.27-14.76 31.54-18.53 7.21-3.29 10.17-4.29 7.94-2.68-.57.4-1.81 1.97-2.78 3.48-1.36 2.15-2.52 2.75-5.27 2.75-3.79 0-9.43 2.42-9.43 4.04 0 .54-2.46 2.07-5.47 3.41-3.01 1.33-7.62 3.91-10.24 5.73-2.63 1.83-5.9 3.8-7.28 4.39-1.43.62-2.5 1.9-2.51 3 0 1.06-.67 1.99-1.5 2.06-.83.08-2.06.19-2.75.25-.69.07-1.25.71-1.25 1.42 0 1.85-5.96 7.37-9.31 8.64-2.4.9-2.77 1.53-2.5 4.29.3 3.17.24 3.23-3.44 2.92-3.31-.27-3.77-.03-3.9 2.02-.28 4.24-.37 4.68-1.1 5.42-.4.39-2.42 1-4.49 1.33-3.37.55-3.76.92-3.76 3.6 0 2.62-.35 2.98-2.89 2.98-1.99 0-3.11.63-3.64 2.05-.42 1.13-2.35 3.45-4.29 5.16-1.94 1.7-4.25 4.49-5.13 6.19-1.14 2.2-2.32 3.1-4.08 3.1-1.36 0-2.47.48-2.47 1.06s-2.03 3.05-4.5 5.49c-2.96 2.92-4.5 5.3-4.5 6.94 0 2.07-.48 2.51-2.76 2.51-1.94 0-3.63 1.06-5.75 3.6-1.64 1.98-4.68 4.47-6.74 5.52-4.33 2.22-4.62 3.35-1.5 5.9 1.72 1.41 1.98 2.12 1.08 3.03s-1.47.7-2.49-.93c-1.78-2.86-5.45-2.78-6.21.13-.32 1.24-2.5 3.37-4.85 4.75M95.49 170.75c-.4 1.24-1.01 2.25-1.36 2.25-1.63.01 1.16-54.1 3.4-65.84 3.15-16.54 13.06-29.39 29.54-38.29l8.57-4.63 36.66-.39c24.81-.27 36.32-.07 35.63.62-.62.62-13.34 1.21-32.87 1.52-28.49.46-32.05.69-33.78 2.26-2.37 2.14-3.28 2.21-3.28.25 0-.82-.56-1.5-1.25-1.5-2.16.01-7.75 3.9-7.75 5.4 0 .9-1.56 1.68-4.25 2.12-2.57.42-5.31 1.74-6.92 3.33-3.53 3.5-4.8 4.73-8.08 7.86-1.51 1.44-2.75 3.24-2.75 3.99 0 1.21-2.39 6.07-6.98 14.18-.87 1.54-1.53 5.51-1.61 9.62-.2 11.19-1.48 23.81-2.65 26.24-.79 1.63-.77 3.26.08 6 1.21 3.9.97 20.92-.35 25.01m336.76 350.53c.69.25 1.01.71.71 1.04-.62.68-14.66-9.83-20.17-15.1-2.04-1.95-3.48-3.92-3.2-4.37.28-.46-.1-.59-.84-.31-1.78.69-21.75-21.6-21.75-24.27 0-.56-.75-1.64-1.67-2.4-4.95-4.08-17.32-28.06-22.85-44.32-6.9-20.28-8.17-28.17-8.41-52.42-.11-11.88.05-21.35.35-21.04.31.31.59 8.5.63 18.21.04 9.88.48 17.91 1.01 18.24 1.24.76 1.21 5.17-.04 5.95-.58.36-.18 2.08 1 4.29 1.25 2.34 1.98 5.62 1.98 8.96 0 2.89.42 5.26.93 5.26 1.17 0 5.07 10.29 5.07 13.37 0 1.26.31 2.61.7 2.99.38.38.79 1.37.91 2.2s1.61 3.67 3.31 6.31c1.69 2.64 3.08 5.75 3.08 6.91s.45 2.38 1 2.72 1 1.53 1 2.64c0 1.72.44 1.92 3 1.36 3.44-.75 4 .74 1.37 3.64-1.52 1.68-1.42 2.04 1.5 5.37 1.72 1.96 3.13 3.92 3.13 4.36 0 .43 1.79 2.78 3.99 5.21 2.19 2.43 3.99 5.38 4 6.54 0 1.28 1.91 3.78 4.76 6.26 7.98 6.96 11.37 10.67 10.5 11.54-.32.32.09.58.91.58s2.55 1.12 3.84 2.5c1.43 1.52 3.45 2.5 5.16 2.5 2.22 0 3.39.9 5.54 4.25 1.5 2.34 2.62 4.63 2.48 5.09-.13.47.31.66.99.44 1.48-.5 4.83 2.18 4.83 3.86 0 .66.56 1.39 1.25 1.64m133.5 328.54c2.11 4.07.83 3.51-4.17-1.84-6.02-6.43-8.44-11.97-9.57-21.88-1.25-10.96-3.18-68.46-3.51-104.6-.15-16.5-.55-33.6-.88-38-.47-6.31-.38-7.37.46-5 1.31 3.69 2.93 44.24 2.97 74.29.02 12.27.43 23.35.92 24.63.49 1.29.57 6.68.18 11.98-.38 5.31-.36 9.99.07 10.42.42.42 1 5.02 1.29 10.22 1.6 28.86 1.92 30.96 4.59 30.96 1.22 0 5.83 5.31 7.65 8.82M146.38 284.59c-.36 3.52-1 6.41-1.41 6.41-1.92 0-2.78-8.38-.97-9.5 1.3-.8 1.3-6.2 0-7-.64-.4-.97-13.41-.91-36.14.07-28.83.37-36.36 1.59-39.94 1.95-5.71 3.81-5.86 2.91-.23-.37 2.31-.65 21.25-.61 42.09.03 20.84-.24 40.78-.6 44.31m57.24 345.14c-8.32.21-16.92.57-19.12.8-2.2.24-5.12-.04-6.5-.62-1.41-.6-4.74-.78-7.62-.43-3.93.49-5.49.27-6.68-.92-.86-.86-2.6-1.57-3.88-1.58-2.86-.01-3.88-.72-6.12-4.23-.96-1.51-2.41-2.75-3.22-2.75-1.27 0-1.57-.72-1.46-3.51.01-.28-.7-1.9-1.57-3.59-.88-1.7-1.28-3.38-.89-3.74s.88-.21 1.09.34c1.54 4.15 8.77 13.67 11.41 15.03 4.66 2.41 19.94 3.72 40.94 3.5 17.01-.18 18.67-.36 20.67-2.21 1.19-1.1 2.45-3.2 2.81-4.66.35-1.47 1.74-4.34 3.08-6.39s2.44-4.43 2.44-5.29c0-3.05 8.64-17.42 15.92-26.48l2.01-2.5-.29 3.77c-.19 2.63-1.24 4.75-3.46 7.04-1.75 1.81-3.18 3.81-3.18 4.44 0 1.12-4.06 5.68-5.69 6.4-1.67.73-4.13 6.82-3.59 8.9.33 1.24.02 2.49-.73 2.96-.71.44-2.25 3.06-3.42 5.82-3.69 8.73-5.4 9.46-22.95 9.9M355 770.53c-7.1 1.96-33.42 3.22-34.39 1.65-1-1.62 2.04-2.04 17.89-2.48 14.76-.4 17.09-1.01 24.2-6.33 2.86-2.14 3.67-2.29 7.5-1.41 3.68.84 4.69.7 7.01-.99 1.49-1.08 3.03-1.97 3.42-1.97s1.49-.7 2.43-1.55c.94-.86 2.67-1.63 3.83-1.72 1.16-.08 2.11-.47 2.11-.85s2.01-2.76 4.46-5.29c3.65-3.75 5.11-4.59 8-4.59 1.95 0 3.6-.45 3.66-1 .07-.55.2-1.56.28-2.25s.87-1.13 1.75-.98c1 .16 2.24-1.08 3.28-3.27 1.71-3.6 5.7-6.96 7.53-6.34 1.61.54-13.89 15.84-21.53 21.24-7.37 5.21-21.33 12.6-23.82 12.6-.82 0-1.75.41-2.06.92-.31.5-2.7 1.41-5.31 2.01s-7.22 1.77-10.24 2.6m-13.64-42.04c-1.57.83-4.66 1.41-6.86 1.31-14.68-.7-17.5-1-17.5-1.85 0-.52-1.96-.95-4.35-.95-3.07 0-4.87-.58-6.15-2-1-1.1-2.58-2-3.52-2s-2.85-.9-4.25-2-3-2-3.55-2c-.56 0-2.28-1.35-3.84-3-1.92-2.03-3.81-3-5.84-3.01-2.32-.01-3.51-.8-5.25-3.49-1.24-1.91-2.25-3.86-2.25-4.34 0-.49-2.72-3.75-6.05-7.27-5.39-5.7-5.99-6.73-5.48-9.52.42-2.27.16-3.3-.95-3.72-1.01-.39-1.52-1.93-1.52-4.62 0-5.06 1.47-5.19 3.06-.28 5.2 16.12 13.22 27.04 25.76 35.06 10.93 7 18.64 10.28 26.68 11.35 7.95 1.06 24.66.2 31.75-1.64 2.61-.67 4.75-.84 4.75-.37s-.87.85-1.94.85-2.22.45-2.56 1-2.12 1-3.94 1c-1.83 0-4.62.67-6.2 1.49M605.32 539c-.57 0-3.5 1.31-6.51 2.92-5.35 2.85-5.46 2.87-5.31.75.12-1.75.88-2.23 3.88-2.48 2.14-.18 3.97-.95 4.3-1.8.75-1.96 7.59-5.39 10.76-5.39 1.59 0 3.13-.93 4.18-2.54.91-1.4 2.39-2.47 3.27-2.38 3.08.29 4.11-.09 4.11-1.51 0-.79 1.01-1.75 2.25-2.14 2.13-.67 6.33-3.63 9.83-6.94.88-.82 2.59-1.49 3.81-1.49 1.34 0 5.09-2.65 9.55-6.75 4.03-3.71 8.36-7.46 9.61-8.32 1.26-.86 2.28-2.31 2.28-3.21 0-.91 3.68-5.53 8.18-10.26 6.33-6.66 8.08-9.13 7.75-10.87-.37-1.94 0-2.26 2.56-2.26h2.99l-2.14 3.09c-1.18 1.69-4.64 6-7.7 9.58-3.07 3.58-6.55 7.9-7.75 9.62-3.57 5.13-24.3 23.02-32.8 28.32S607.03 539 605.32 539m-105.33-34.75c.01.96-7.15.95-8.56-.02-.59-.4-1.37-1.52-1.72-2.48-.72-1.95-2.42-2.19-5.98-.84-2.26.86-5 .13-4.82-1.27.25-1.81-.11-2.15-2.37-2.28-1.35-.08-4.12-1.52-6.17-3.2-2.04-1.69-4.15-2.79-4.7-2.46-.56.35-.66.09-.22-.61.44-.72-.01-1.79-1.1-2.58-1.61-1.19-2.14-1.09-4.1.74l-2.25 2.1-.12-2.93c-.06-1.6-.07-3.23-.02-3.61.11-.74-3.11-1.98-4.51-1.73-2.08.38-3.41-.17-2.81-1.14 1.03-1.67-2.6-5.05-4.71-4.39-1.01.32-1.86.22-1.91-.23-.44-4.79-3.38-8.69-6.02-8-2.06.53-3.96-.54-4.26-2.42-.4-2.58-2.12-4.67-4.14-5.05-1.24-.23-2.43-1.69-3.12-3.82-.61-1.89-2.07-4.08-3.25-4.86-1.17-.78-2.13-2.24-2.13-3.24 0-1.01-.62-2.19-1.37-2.63-1.57-.92-3.18-5.3-1.95-5.29.45 0 1.94 1.69 3.32 3.75 5.88 8.8 9.74 13.29 19.33 22.51 8.73 8.38 15.88 14.09 22.85 18.23 11.13 6.61 19.32 10.55 30.56 14.7 3.42 1.26 6.24 2.64 6.25 3.05m209.82-93.82c-1.25 5.26-2.57 9.57-2.94 9.57-1.08 0-1.85-2.89-.92-3.47.48-.3.84-2.5.8-4.89-.04-2.61.85-6.25 2.2-9.04 2-4.12 2.14-5.2 1.17-9.04-.88-3.48-.8-5.23.39-8.59 2.06-5.85 2.05-28.12-.02-33.99-1.11-3.16-1.25-5.17-.55-7.74.73-2.62.61-4-.49-5.67-.8-1.22-1.62-3.68-1.83-5.47s-.88-3.76-1.5-4.38c-1.33-1.33-1.5-6.37-.23-7.15.49-.31 1.2.68 1.58 2.19s1.3 4.09 2.04 5.74c3.03 6.68 3.7 11.95 4.2 33 .56 23.72-.21 33.44-3.9 48.93m-312.19-21.42c2.04 5.09 1.11 7.65-1.01 2.77-1.82-4.2-2.1-7.78-.61-7.78.55 0 1-1.15 1-2.56s-.42-2.3-.93-1.98c-1.68 1.04-2.06-2.84-1.09-11.33.79-6.89.7-8.75-.51-10.48-2.06-2.94-1.83-5.74.53-6.36 1.2-.31 2.01-1.38 2.03-2.66.03-2.89 3.25-14.62 4.75-17.31.67-1.21 1.22-3.16 1.22-4.35 0-1.18.87-3.26 1.93-4.61 1.07-1.35 1.78-3.29 1.58-4.31-.34-1.74 3.96-6.91 4.94-5.94.24.25-1.26 4.72-3.34 9.92-6.9 17.24-10.09 33.84-10.1 52.66-.01 5.06-.45 9.46-.98 9.79-.61.38-.38 2.11.59 4.53m196.74 458.83c-4.23 3.22-6.36 3.95-6.36 2.16 0-.55.69-1 1.52-1 .84 0 1.97-1.15 2.5-2.56.54-1.41 1.43-2.28 1.98-1.94 1.36.84 8.96-5.61 8.98-7.63.01-.9 1.6-2.83 3.52-4.3s3.5-3.34 3.5-4.15c0-.82.79-1.77 1.75-2.13s3.5-2.43 5.64-4.62c2.14-2.18 3.27-3.58 2.5-3.12-1.18.71-1.18.58-.03-.85.75-.92 1.71-1.47 2.13-1.21s1.03-.83 1.35-2.43c.34-1.7 1.41-3.16 2.6-3.54 1.11-.35 2.79-2.3 3.73-4.33.93-2.03 3.53-5.91 5.76-8.63 2.24-2.71 4.07-5.34 4.07-5.83s.72-1.42 1.6-2.06c.89-.65 1.93-2.18 2.32-3.4.38-1.23 1.23-2.13 1.87-2s1.31-.72 1.49-1.88c.18-1.17 1.45-2.63 2.82-3.25 3.61-1.65 3.79-1.45 1.43 1.61-4.04 5.25-14.55 19.82-18.46 25.61-7.42 10.98-29.15 34.56-38.21 41.48m-302.68-84.7c1.5.59 1.38.73-.68.76-2.46.05-12.17-4.73-21-10.32-7.68-4.87-24-19.36-24-21.31 0-1.09 5.97-3.63 6.73-2.87.35.34-.42 1.6-1.71 2.79l-2.33 2.17 3.91 3.31c2.14 1.81 4.67 3.31 5.6 3.32.94 0 2.06.62 2.5 1.36.44.75 1.77 1.87 2.95 2.49 1.93 1.01 2.1.9 1.6-.99-.4-1.52-.16-1.99.84-1.65.77.25 1.43 1.1 1.46 1.88.21 4.8 8.45 11.24 13.72 10.73 2.74-.26 3.28.05 3.56 2.05.31 2.18.68 2.32 4.5 1.76 3.72-.55 3.97-.47 2.35.79-2.3 1.79-2.3 2.82 0 3.73m260.45-253.3c-4.66 1.4-5.45 1.43-6.68.24-.52-.5-2.07-1.11-3.45-1.36-1.87-.33-1.57-.48 1.16-.58 5.12-.19 18.37-2.81 24.34-4.8 15.73-5.26 19.96-6.97 29.42-11.9 5.73-2.99 10.68-5.43 11-5.41s-.21.49-1.17 1.05-1.75 1.85-1.75 2.86c0 1.92-1.86 3.06-4.97 3.06-1 0-2.08.67-2.39 1.5-.32.83-1.5 1.5-2.64 1.5-2.8 0-14.23 4.82-15.61 6.58-.61.78-2.76 1.42-4.78 1.42-2.98 0-3.83.46-4.61 2.5-1.08 2.85-3.15 3.21-5.41.95-1.11-1.12-2.53-1.36-5.07-.89-1.94.37-3.52.99-3.52 1.39s-1.74 1.25-3.87 1.89M372.39 300.02c.65 4.1-.27 4.98-3.25 3.09-1.07-.68-.24-3.03 3.96-11.24 10.2-19.89 12.56-21.76 25.22-19.97 6.88.98 16.14 4.91 15.54 6.6-.2.55-.75.87-1.23.71-.49-.16-.65.89-.38 2.33.63 3.27-1.71 4.44-4.08 2.04-1.56-1.59-1.56-1.79.08-3 3.66-2.72 1.08-5.94-3.49-4.35-2.39.84-3.59.71-5.79-.59-4.12-2.43-10.48-2.14-13.2.61-1.23 1.24-3.14 2.72-4.25 3.29-1.29.66-2.02 2.04-2.02 3.82 0 1.52-.73 3.19-1.64 3.69-.9.51-1.92 2.46-2.27 4.34-.36 1.88-1.36 3.69-2.24 4.03-1.26.48-1.46 1.47-.96 4.6m451.22-211.8c3.22 6.4 3.45 7.46 3.18 14.92-.37 10.16-1.79 9.15-1.79-1.26 0-7.64-1.46-13.33-3.15-12.29-.47.29-.86-.51-.87-1.78-.02-3.16-.97-4.34-4.4-5.47-2.02-.66-2.98-1.67-3.09-3.27-.1-1.27-.92-2.73-1.83-3.24S810 74.12 810 73.17c0-1.21-1.44-2.15-4.75-3.1-2.61-.75-5.2-1.69-5.75-2.08-.98-.71-12.66-2.58-21.34-3.42-6.66-.64-6.23-1.57.73-1.57 7.48 0 20.24 1.83 21.56 3.09.52.5 2.17.91 3.67.91 1.9 0 4.02 1.34 7.05 4.44 7.13 7.31 8.81 9.57 12.44 16.78m-385.9 523.9c1.05 2.44.95 2.63-1.37 2.63-1.44 0-2.71-.69-2.99-1.63-.27-.89-.91-2.4-1.42-3.36-.51-.95-.93-2.86-.93-4.25 0-1.6-.56-2.51-1.55-2.51-.86 0-2.02-1.35-2.6-3-1.32-3.78-2.33-3.77-5.54.04-1.41 1.68-2.79 2.81-3.07 2.53-.94-.94 1.98-6.57 3.41-6.57 2.19 0 2.78-2.91.97-4.8-14.35-15.01-17.57-18.72-16.58-19.05 2.8-.93 19.63 18.36 26.05 29.86.87 1.57 2.24 3.89 3.04 5.17.79 1.28 1.95 3.5 2.58 4.94m161.3 83.63c-.01 6.07-1.07 6.73-2.86 1.78-.9-2.49-.96-4.02-.2-5.43 1.44-2.7 1.37-12.1-.09-12.1-.83 0-.96-2.49-.48-8.86.56-7.42.41-9.07-.92-10.17-1.28-1.06-1.46-2.58-.97-7.89.94-10.1 1.62-14.08 2.41-14.08.67 0 3.14 45.06 3.11 56.75m-50.08-48c-.04 2.06-.42 4.65-.86 5.75-1.19 3.04-1.96-12.47-2.58-52.5-.3-19.53-.81-38.2-1.12-41.5-.46-4.84-.33-5.76.7-4.78.95.91 1.25 6.42 1.21 21.9s.29 21.51 1.33 24c1.62 3.87 1.82 8.99.39 9.88-.6.37-1 7.18-1 17.06 0 10.29.37 16.44 1 16.44.55 0 .97 1.69.93 3.75M149 141.66c0 1.84-.45 3.34-1 3.34-1.81 0-1.1-9.88 1-14 2.38-4.67 2.55-7 .5-7-1.76 0-2.01-2.57-.35-3.59.64-.4 1.67-.01 2.29.84 1.6 2.18 4.56.36 4.56-2.8 0-1.75.55-2.45 1.93-2.45 1.06 0 2.6-.68 3.43-1.5.82-.82 2.4-1.5 3.5-1.5s2.98-1.37 4.18-3.06c1.74-2.45 2.78-2.99 5.24-2.75 3.52.35 5.05 2.81 1.75 2.81-2.15 0-14.41 6.69-16.82 9.17-5.73 5.93-10.21 15.78-10.21 22.49m103.12 438.09c-.07.69-.8 1.25-1.62 1.25-6.36 0 8.36-13.17 25.52-22.82 5.73-3.23 23.41-10.17 25.92-10.18 1.03 0 .88.42-.5 1.47-1.07.81-2.75 1.48-3.73 1.5-.99.02-3.04.95-4.56 2.08-2.47 1.83-5.46 2.67-10.19 2.88-.85.04-3.55 1.9-6 4.14s-5.97 4.71-7.82 5.49c-1.98.84-3.15 1.95-2.85 2.68 1.99 4.86 2.01 5.03.62 4.54-.78-.27-1.29-1.18-1.14-2.02.52-3-2.66-2.67-5.97.63-1.82 1.81-4.31 3.82-5.54 4.48-1.23.65-2.19 1.51-2.13 1.91s.05 1.28-.01 1.97m110.16 142.9c-3.26 1.37-5.28 1.71-5.28.91 0-.24 2.75-1.91 6.11-3.7 7.72-4.11 19.72-15.26 25.9-24.07 3.92-5.58 4.97-6.52 5.94-5.35.94 1.13.78 1.83-.76 3.37-1.07 1.07-2.42 2.11-3.01 2.31-.58.21-1.28 1.61-1.55 3.11-.64 3.55-1.43 4.77-3.11 4.77-.74 0-1.5.42-1.69.94-.18.52-3.18 3.91-6.65 7.55-4.55 4.75-6.83 6.44-8.11 6.03-1.03-.33-2.38.14-3.18 1.11-.76.92-2.84 2.29-4.61 3.02m1.81-172.01-.11.05c-1.59.83-2.36 1.24-3.1 1.18-.71-.06-1.39-.54-2.74-1.49-1.53-1.06-3.45-1.43-5.66-1.07-2.18.35-4.58-.09-6.91-1.28-2.85-1.45-5.48-1.76-12.97-1.55-9.77.28-14.36-.75-9.16-2.05 4.15-1.05 27.48.4 34.02 2.1 3.1.81 6.5 1.47 7.56 1.47s3.41.9 5.21 2c1.8 1.09 2.57 1.99 1.71 2-.86 0-2.39-.61-3.41-1.36-1.56-1.14-2.27-1.14-4.44 0m81.49 126.69c-.86 5.71-2.58 6.16-2.58.67 0-2.2.45-4 1-4 .58 0 1-3.15 1-7.44 0-4.09-.45-7.72-1-8.06s-1-2.19-1-4.12c0-2.08.41-3.25 1-2.88 1.47.91 1.22-2.73-.47-6.77-.8-1.93-1.77-7.15-2.14-11.59-.37-4.45-1.06-7.84-1.54-7.55-1.45.9-2.1-2.35-1.06-5.31l.97-2.78 1.12 2.82c.62 1.54 1.12 4.6 1.12 6.78s.72 5.64 1.59 7.68c1.8 4.2 3.21 34.38 1.99 42.55m257.53-365.62c1.65 3.04 2.77 5.74 2.5 6.01-.9.9-8.61-14.93-8.61-17.67 0-.98-.9-2.92-2-4.32s-2-3.05-2-3.67c0-1.27-2.79-6.03-4.43-7.56-1.05-.98-6.07-8.88-9.69-15.25-2.69-4.73-.52-3.98 2.88 1 1.59 2.34 5 7.24 7.57 10.89s4.67 7.17 4.67 7.82 1.07 3.06 2.39 5.36c1.31 2.3 2.69 5.91 3.06 8.02.37 2.12 2.02 6.33 3.66 9.37M413 433.18c0 2.67-5.43-2.48-6.51-6.18-.4-1.38-1.33-3.19-2.06-4.03-.74-.84-1.27-2.47-1.18-3.62.17-2.26-1.68-8.95-3.88-13.99-.81-1.88-1.1-4.44-.72-6.37.6-2.98.79-2.67 2.48 4.01 1.01 3.98 1.59 7.65 1.28 8.14-.31.5 0 .79.68.63.68-.15 1.77 1.52 2.45 3.73.66 2.2 2.62 6.89 4.33 10.43 1.72 3.53 3.13 6.79 3.13 7.25m245.21 1.36c-.16 1.12-2.09 4.05-4.28 6.5l-3.99 4.46 3.39-7c5.21-10.77 8.54-19.7 11.11-29.79 2.3-9.08 2.35-9.15 3.09-5.3.59 3.08.4 4.17-.89 5.11-.9.66-1.64 1.99-1.64 2.96s-.99 4.65-2.2 8.18c-1.8 5.24-2.01 6.96-1.11 9.33.99 2.61.88 2.93-1.05 3.2-1.26.18-2.26 1.15-2.43 2.35m-299.37-91.86c.09 4.33-.48 7.47-1.9 10.5l-2.03 4.32.46-4.5c1.24-12.34 2.8-20.85 5.58-30.47 1.68-5.82 3.08-10.9 3.12-11.3s.46.17.93 1.27c1.36 3.18 1.13 7.15-.5 8.5-.83.68-1.5 2.11-1.5 3.16s-.71 3-1.58 4.33c-2.09 3.18-2.73 6.7-2.58 14.19m42.64 228.96c-3.08 2.25-4.5 1.71-3.86-1.49.46-2.29.04-3.28-2.16-5-1.5-1.18-3.74-2.15-4.98-2.15-1.3 0-2.95-1.06-3.91-2.53-.91-1.39-2.05-2.29-2.53-2-.98.61-7.4-4.44-6.63-5.21.74-.75 15.41 7.4 21.3 11.82 2.86 2.16 5.65 3.92 6.19 3.92s1.3.52 1.7 1.16c.48.78.06.99-1.27.64-1.09-.29-2.83.09-3.85.84m353.13 51.83c-.35 2.37-.92 2.45-4.54.57-3.31-1.71-3.35-1.82-1.32-2.91 1.17-.62 2.94-1.14 3.93-1.15 4.87-.06 15.85-5.09 20-9.15 3.27-3.21 4.32-3.81 4.32-2.44 0 1.79-5.58 7.87-7.5 8.16-.55.08-1.79.21-2.75.3-2.06.18-2.4 3.15-.36 3.15.77 0 1.66.67 1.97 1.5.36.92 0 1.5-.92 1.5-.83 0-1.76-.67-2.08-1.5-.39-1.02-1.89-1.47-4.72-1.4-4.25.1-10.54 1.62-7.48 1.8.92.06 1.57.76 1.45 1.57m-159.17-6.22c.95 5.72-.46 6.31-2.42 1-1.89-5.11-2.24-27.25-.43-27.25 1.91 0 2.37 2.58 2.21 12.5-.09 4.95.2 11.14.64 13.75M499 549.2c0 .96-1.61.88-5-.24-1.38-.45-4.52-1.36-7-2.01-11.94-3.17-20-6.2-20-7.53 0-1.76 2.62-1.87 3.7-.15.97 1.53 9.04 3.73 13.7 3.73 1.85 0 4.66.67 6.24 1.49 1.57.83 3.56 1.5 4.41 1.5 1.65.01 3.95 1.88 3.95 3.21m197.16-98.95c-2.51 5.57-4.16 7.28-4.16 4.31 0-.8 1-3.14 2.22-5.21s2.32-4.44 2.44-5.27c.12-.82.66-2.41 1.19-3.54.53-1.12 1.52-4.29 2.2-7.04 1.34-5.41 4.82-12.5 6.13-12.5h.01c.25 0 .45 0 .57.1.4.32-.1 1.75-2.3 8.04l-.01.05c-3.22 9.21-5.03 13.82-8.29 21.06M769.5 112c.34.55.48.94.31.88-2.29-.93-13.06-2.23-19.31-2.33-14.64-.24-16.69-.47-16.25-1.8.47-1.4 8.75-1.97 8.75-.61 0 1.19 3.75 1.09 4.17-.11.48-1.41 14.72 0 16.34 1.62.74.74 2.25 1.35 3.36 1.35s2.29.45 2.63 1M230.49 705.63c.94 2.27 1.54 4.96 1.35 5.98-.23 1.19-1.37-.47-3.17-4.63-1.55-3.56-3.23-7.38-3.75-8.48-.51-1.1-1.98-5.15-3.26-9-2.04-6.13-2.67-7.04-5-7.32-3.42-.4-3.42-1.95 0-2.81 3.29-.83 5 1.21 5.89 7.02.35 2.26 1.47 5.69 2.49 7.61 2.38 4.49 3.35 6.56 5.45 11.63m183.48-397.38c-.71 1.51-1.67 2.75-2.13 2.75-1.15 0-1.06-5.37.1-6.55.52-.52 1.22-2.52 1.56-4.43.34-1.92 1.32-4.26 2.18-5.22 1.18-1.3 1.43-3.08 1.04-7.26-.5-5.28.37-7.35 1.67-3.96 1.68 4.36-.45 16.22-4.42 24.67m411.55 336.5c-.41 1.24-1.12 2.25-1.57 2.25-1.43 0-1.51-4.37-.16-8.41.83-2.49 1.08-5.81.67-9.08-.61-4.84-.48-5.27 2.09-6.95l2.75-1.8-.79 2.37c-.43 1.3-1.11 6.2-1.51 10.87s-1.06 9.51-1.48 10.75M457.2 535.26c.72.26 1.06.73.77 1.05-.76.83-15.89-7.42-23.9-13.04-.24-.17.09-.83.72-1.46.88-.88 1.59-.79 2.94.4.97.86 4.02 2.7 6.77 4.1s6.44 3.88 8.2 5.52c1.77 1.63 3.79 3.18 4.5 3.43m-18.39 163.99c-.48.96-1.25 1.75-1.71 1.75-1.04 0-.16-4.84 1.02-5.57 1.42-.88 1.01-5.8-.68-8.21-2-2.85-1.03-4.6 1.64-2.95 1.62 1 2.15.96 2.9-.24 3.33-5.35.6 7.75-3.17 15.22M540.13 551.9c1.07 1.16 1.59 2.04 1.16 1.96-3.93-.7-18.2-1.96-23.89-2.12-5.74-.15-6.85-.43-5.82-1.47 1.7-1.69 4.56-1.61 12.78.39 5.74 1.39 7.43 1.46 10.33.41 3.15-1.14 3.67-1.06 5.44.83m129.23-203.98c1.11 1.28 1.14 2.13.15 4.46l-1.22 2.88-.65-4.94c-.56-4.23-3.36-13.72-6.14-20.82-.75-1.92-.69-1.91 1.46.13 1.23 1.17 2.3 3.26 2.39 4.65.08 1.39.44 2.35.8 2.13.98-.61 1.85 2.35 1.85 6.34 0 1.98.61 4.3 1.36 5.17m-489.6 332.86c.22.67-.19 1.13-.93 1.03-.73-.11-4.26-.33-7.83-.5s-8.07-.6-10-.95c-3.35-.63-3.39-.69-1-1.41 3.11-.94 13.67-.98 16.93-.07 1.33.37 2.61 1.23 2.83 1.9m64.57 47.12c.34 1.7.46 3.1.27 3.1-.46 0-7.8-9.65-10.14-13.34l-1.81-2.85 2.42.35c1.88.26 2.5 1.03 2.73 3.38.16 1.67 1.16 3.58 2.22 4.24 1.63 1.02 2.1.87 3.07-.95 1.07-2 1.22-2.03 2.15-.37.7 1.26.63 2-.27 2.56-.82.5-1.04 1.87-.64 3.88M671.8 376.68c-.66 1.83-1.47 3.32-1.8 3.32-.34 0-.69-5.4-.78-12-.12-8.28.17-12 .94-12 .76 0 .94 1.76.56 5.44-.42 4.03-.19 5.75.86 6.62 1.74 1.45 1.81 4.23.22 8.62M413 587.87c0 1.39-2.26 1.96-4.5 1.12-2.44-.92-5.25-3.96-5.53-5.99-.66-4.73 1.26-5.39 3.43-1.19.8 1.54 2.61 3.33 4.03 3.97 1.41.65 2.57 1.59 2.57 2.09m-132.91 12.22c-.88.87-2.05 2.39-2.62 3.37-.85 1.48-1.21 1.55-2.13.41-2.82-3.49 4.99-11.28 8.75-8.73 1.17.8 1.08 1.17-.5 2.16-1.05.66-2.63 1.91-3.5 2.79m37.67 170.66c.67 2.05-6.11 1-12.76-1.97-1.92-.86-5.3-2.3-7.5-3.2l-4-1.64 3.87.6c2.13.33 4.61.96 5.5 1.41 4.5 2.25 6.97 3.02 10.55 3.27 2.16.16 4.11.84 4.34 1.53M522 509.09c-1.38.39-2.95.67-3.5.63s-3.09-.25-5.64-.45c-3.1-.25-5.26-1.06-6.5-2.45-1.82-2.04-1.82-2.07.14-1.52 1.1.32 5.6 1.14 10 1.83 6.15.96 7.42 1.42 5.5 1.96m167.03-44.88c-1.84 3.42-3.48 4.49-4.46 2.91-1-1.62 3.35-8.87 5.68-9.48 2.77-.72 3.37-.09 1.76 1.85-.7.84-2.04 2.97-2.98 4.72m-74.32 19.32c-2.09 1.36-4.23 2.47-4.75 2.47-1.99 0-.74-1.59 3.33-4.26 2.31-1.52 5.64-3.92 7.38-5.32 3.02-2.43 3.15-2.45 2.62-.44-.55 2.12-1.46 2.93-8.58 7.55M264 648.5c0 3.11-.45 5.5-1.03 5.5-1.84 0-2.7-4.3-1.66-8.25 1.21-4.59 2.69-3.08 2.69 2.75m449.69 2.93c-2.79 2.56-3.55 2.76-7.03 1.86-1.78-.46-1.78-.52.05-1.8 1.04-.73 3.67-1.62 5.84-1.97l3.95-.65Zm-96-160c-2.95 2.7-4.35 3.07-6.49 1.72-1.93-1.23.4-2.82 5.3-3.63l4-.65Zm77.77-178.36c-1.19 1.92-2.42.8-3.49-3.2-1.56-5.79.28-7.21 2.41-1.87.91 2.27 1.4 4.55 1.08 5.07M235.83 696.94c.61 1.76.69 4.08.18 5.75-.46 1.55-.88 2.09-.92 1.21-.05-.87-.8-3.01-1.66-4.73-1.49-3.01-1.27-5.17.53-5.17.46 0 1.31 1.32 1.87 2.94m154.66-307.92c-.35 1.64-1.29 2.98-2.07 2.98-1.97 0-1.92-6.59.05-7.35 2.04-.78 2.8.86 2.02 4.37M599 532.85c0 1.33-4.53 1.99-6.4.94-2.11-1.17-2.03-2.44.19-3.02 2.14-.57 6.21.8 6.21 2.08m-3 95.65c0 3.33-.39 4.5-1.5 4.5-1.56 0-2.08-4.33-.89-7.42 1.16-3.04 2.39-1.54 2.39 2.92m-87.18-78.25c.18.96-.04 1.68-.5 1.59-.45-.09-2.28-.34-4.07-.56-2.04-.26-3.25-.96-3.25-1.9 0-2.28 7.37-1.46 7.82.87M148 151c0 4.92-1.18 6.57-2.41 3.37-.8-2.08.34-8.37 1.52-8.37.49 0 .89 2.25.89 5m408.83 454.55c-.18 1.54-.85 2.97-1.5 3.18-1.73.57-2.61-3.34-1.29-5.8 1.49-2.79 3.23-1.15 2.79 2.62M396.64 476.49c-.85 2.22-2.64 1.84-2.64-.56 0-1.13-.47-2.93-1.04-4-1.55-2.91.66-2.43 2.63.56.9 1.37 1.37 3.17 1.05 4m203.5-231.58c1.3 1.06 2.14 2.12 1.86 2.37-.84.76-7.35-1.84-7.77-3.1-.62-1.86 3.31-1.38 5.91.73m92.29 463.52c-1.44 1.44-4.43 2.19-4.43 1.12 0-.25 1.15-1.6 2.55-3s2.75-2.55 3-2.55c1.07 0 .32 2.99-1.12 4.43M264 662.42c0 1.97-.46 3.58-1.03 3.58-2.38 0-2.57-5.97-.22-6.75.84-.28 1.25.74 1.25 3.17m413.31-383.6c.28 1.47.44 2.75.35 2.84s-1.22-.69-2.52-1.74c-1.37-1.11-2.12-2.54-1.79-3.4.86-2.22 3.37-.76 3.96 2.3m-83.77 460.12c-1.32 2.14-2.54.97-2.54-2.44 0-1.92.44-3.5.98-3.5 1.24 0 2.43 4.53 1.56 5.94M427.35 721.4c-2.23 3.06-3.35 3.27-3.35.64 0-1.89 3.63-4.75 4.68-3.69.29.28-.32 1.65-1.33 3.05M282 64c-.83.53-2.85.97-4.5.97s-3.67-.44-4.5-.97c-1.06-.68.26-.97 4.5-.97s5.56.29 4.5.97m158 410c0 2.27-1.04 2.56-2.8.8-1.77-1.77-1.51-4.13.38-3.41.87.34 1.77.61 2 .61s.42.9.42 2m229.39-78.42c-.91 3.63-2.75 2.99-2.01-.7.34-1.72.65-3.86.68-4.76.04-1.05.39-.81 1 .71.52 1.29.66 3.42.33 4.75M277 715.56c0 1.88-2.41 1.85-3.99-.05-1-1.2-.94-1.6.33-2.09 1.96-.75 3.66.25 3.66 2.14M538 510c0 .55-1.55 1-3.44 1s-3.72-.45-4.06-1c-.37-.6.99-1 3.44-1 2.23 0 4.06.45 4.06 1m142-44.44c0 .79-.63 1.44-1.39 1.44-1.7 0-2.9-2.7-1.57-3.53 1.32-.81 2.96.35 2.96 2.09m-84 370.83c0 1.7-2.7 2.9-3.53 1.57-.32-.53-.31-1.41.03-1.96.92-1.5 3.5-1.21 3.5.39M170 102.5c-.68.82-1.86 1.5-2.62 1.5s-1.38-.68-1.38-1.5c0-.95.96-1.5 2.62-1.5 2.22 0 2.43.23 1.38 1.5m462.41 133.9-.03.01c-1.17.45-1.62.62-1.98.5-.23-.07-.42-.26-.73-.58-1.26-1.25-.67-2.33 1.27-2.33 2.52 0 3.51 1.61 1.47 2.4m-164.7 297.22c.2.62-.55 1.37-1.67 1.66-1.55.4-2.04.05-2.04-1.45 0-2.11 3.02-2.28 3.71-.21M781 619.67c0 1.49-2.58 1.82-3.43.44-.68-1.1 1.87-3.34 2.77-2.43.36.36.66 1.25.66 1.99M107 632c0 1.99-1.07 2.6-2.33 1.33-1.22-1.21-.69-3.33.83-3.33.83 0 1.5.89 1.5 2m336-115.5c0 1.52-2.12 2.05-3.33.83-1.27-1.26-.66-2.33 1.33-2.33 1.11 0 2 .67 2 1.5m-14.35 192.96c-.65 1.7-2.23 2.03-3.08.65-.65-1.05 2.21-3.66 3.08-2.8.33.33.33 1.3 0 2.15M356 556.5c0 1.54-.57 1.72-2.75.84-1.96-.79-1.46-2.34.75-2.34 1.11 0 2 .67 2 1.5m56.98-112.25c.03 1.23-1.65.85-2.91-.66-.88-1.07-.89-1.59-.01-2.13 1.08-.66 2.89 1.06 2.92 2.79M603 231.92c0 1.23-.65 2.08-1.57 2.08-.93 0-1.44-.68-1.25-1.67.48-2.51 2.82-2.85 2.82-.41m-238.88 105.8c.73.73.77 1.66.1 2.85-.9 1.6-1.04 1.56-1.69-.48-.84-2.63.04-3.92 1.59-2.37m191.45 314.6c.38 1 .24 2.27-.32 2.83-1.51 1.51-2.58-.75-1.37-2.89.93-1.67 1.02-1.67 1.69.06M319 581c-1.97 1.27-5 1.27-5 0 0-.55 1.46-.99 3.25-.98 2.47.01 2.89.24 1.75.98m421 100.89c0 1.13-2.6 2.18-3.4 1.37-1.21-1.2-.55-2.26 1.4-2.26 1.1 0 2 .4 2 .89M401 618.5c0 1.56-1.18 1.98-2.33.83s-.73-2.33.83-2.33c.83 0 1.5.67 1.5 1.5m207 128.92c0 .87-.71 1.58-1.58 1.58s-1.41-.53-1.19-1.19c.62-1.85 2.77-2.16 2.77-.39m62-421.53c0 .49-.67 1.16-1.5 1.47-.91.35-1.5 0-1.5-.89 0-.81.67-1.47 1.5-1.47s1.5.4 1.5.89M684 284c0 .55-.65 1-1.44 1s-1.72-.45-2.06-1 .31-1 1.44-1 2.06.45 2.06 1m-324 80.94c0 1.13-.45 2.06-1 2.06s-1-.65-1-1.44.45-1.72 1-2.06 1 .31 1 1.44M578 512c0 .55-.93 1-2.06 1s-1.78-.45-1.44-1 1.27-1 2.06-1 1.44.45 1.44 1m-102.95 15.5c.03.55-.69 1.16-1.61 1.35-1.05.21-1.5-.16-1.22-1 .52-1.56 2.75-1.83 2.83-.35m-80.69 84.01c.35.9 0 1.49-.89 1.49-1.62 0-1.99-1.56-.57-2.44.49-.3 1.15.12 1.46.95M351 581c0 .55-.67 1-1.5 1s-1.5-.45-1.5-1 .67-1 1.5-1 1.5.45 1.5 1m67 143.5c0 .83-.45 1.5-1 1.5s-1-.67-1-1.5.45-1.5 1-1.5 1 .67 1 1.5m234.81-261.58c.2.6-.39 1.08-1.31 1.08s-1.51-.48-1.31-1.08c.2-.59.79-1.07 1.31-1.07s1.11.48 1.31 1.07M143 76c0 .55-.45 1-1 1s-1-.45-1-1 .45-1 1-1 1 .45 1 1"/><path fill="#0CB6F6" d="M767.56 63.53c.24-.18-.12-.34-1.5-.48 3.04.06 5.81.11 8.32.17-2.06.32-.86.9 3.78 1.35 8.68.84 20.36 2.71 21.34 3.42.55.39 3.14 1.33 5.75 2.08 3.31.95 4.75 1.89 4.75 3.1 0 .95.75 2.15 1.66 2.66s1.73 1.97 1.83 3.24c.11 1.6 1.07 2.61 3.09 3.27 3.43 1.13 4.38 2.31 4.4 5.47.01 1.27.4 2.07.87 1.78 1.69-1.04 3.15 4.65 3.15 12.29 0 10.41 1.42 11.42 1.79 1.26.27-7.46.04-8.52-3.18-14.92l3.38 6.71-.03 190.29c-.02 129.93.31 191.25 1.02 193.29 1.12 3.22.81 106.53-.19 143.23l-1.24.82c-2.57 1.68-2.7 2.11-2.09 6.95.41 3.27.16 6.59-.67 9.08-1.35 4.04-1.27 8.41.16 8.41.32 0 .77-.51 1.15-1.25-.03.09-.06.17-.09.25-.43 1.14-1.02 2.4-1.74 3.74.34-.8.44-1.36.24-1.57-.37-.37-1.29.23-2.05 1.33-.75 1.1-2.04 2.69-2.86 3.54-2.26 2.32-6.63 8.96-5.9 8.96.36 0-.43 1.15-1.75 2.55-1.65 1.76-3.07 2.39-4.55 2.01-1.45-.36-3.38.43-5.91 2.45-2.07 1.65-4.62 2.99-5.66 2.99s-2.15.68-2.47 1.52c-.38.98-1.86 1.49-4.22 1.45-3.5-.05-9.11.6-13.93 1.61-1.26.26-2.02.92-1.69 1.45s-.55.97-1.96.97c-1.56 0-2.56-.56-2.56-1.44 0-.79-.45-1.72-1.01-2.07-1.18-.73-9.12 3.05-11.95 5.69-1.08 1-2.62 1.82-3.43 1.82-.82 0-4.99 1.35-9.27 3-4.29 1.65-8.48 3-9.33 3-.84 0-2.1.92-2.8 2.04s-1.73 1.76-2.29 1.41c-.56-.34-4 1.33-7.66 3.71-3.66 2.39-7.58 4.8-8.71 5.37s-2.06 1.47-2.07 2c-.02 1.78-1.61 3.51-2.63 2.88-.56-.35-2.21.51-3.68 1.9-1.47 1.38-3.76 2.67-5.1 2.85-1.63.23-2.66 1.2-3.12 2.91-.37 1.41-1.87 3.76-3.32 5.2-1.44 1.45-2.63 3.31-2.63 4.12 0 .82-3.1 4.67-6.89 8.56-3.78 3.9-7.41 8.35-8.05 9.91-.65 1.57-2.59 3.45-4.36 4.23-2.47 1.09-3.32 2.2-3.77 4.91-.33 1.99-1.98 4.98-3.83 6.94-1.79 1.88-4.08 5.06-5.09 7.05-1.02 1.99-3.01 4.14-4.43 4.79s-2.58 1.64-2.58 2.21c0 1.23 2.26 5.01 2.99 5 .28 0 1.63-1.86 3.01-4.13 1.38-2.26 2.99-4.95 3.59-5.98.11-.2.25-.42.41-.65-.06.55-3.3 5.75-7.44 11.95-.2-.23-1.15.13-2.96.96-1.37.62-2.64 2.08-2.82 3.25-.18 1.16-.85 2.01-1.49 1.88s-1.49.77-1.87 2c-.39 1.22-1.43 2.75-2.32 3.4-.88.64-1.6 1.57-1.6 2.06s-1.83 3.12-4.07 5.83c-2.23 2.72-4.83 6.6-5.76 8.63-.94 2.03-2.62 3.98-3.73 4.33-1.19.38-2.26 1.84-2.6 3.54-.32 1.6-.93 2.69-1.35 2.43s-1.38.29-2.13 1.21c-1.15 1.43-1.15 1.56.03.85.77-.46-.36.94-2.5 3.12-2.14 2.19-4.68 4.26-5.64 4.62s-1.75 1.31-1.75 2.13c0 .81-1.58 2.68-3.5 4.15s-3.51 3.4-3.52 4.3c-.02 2.02-7.62 8.47-8.98 7.63-.55-.34-1.44.53-1.98 1.94-.53 1.41-1.66 2.56-2.5 2.56-.83 0-1.52.45-1.52 1 0 .65.28.97.84.95-.19.05-.35.08-.48.08-1.02.02-2.73.69-3.8 1.5-1.87 1.41-7.68 1.7-15.23.75-.75-.09-1.64-.46-2.6-1.03 0-.37-.33-1.18-.98-2.43-1.82-3.51-6.43-8.82-7.65-8.82-2.67 0-2.99-2.1-4.59-30.96-.29-5.2-.87-9.8-1.29-10.22-.43-.43-.45-5.11-.07-10.42.39-5.3.31-10.69-.18-11.98-.49-1.28-.9-12.36-.92-24.63-.04-30.05-1.66-70.6-2.97-74.29-.19-.55-.35-.92-.47-1.07-.19-8.88-.42-18.33-.65-27.84.33 3.76.69 4.98 1.11 3.91.44-1.1.82-3.69.86-5.75s-.38-3.75-.93-3.75c-.63 0-1-6.15-1-16.44 0-9.88.4-16.69 1-17.06 1.43-.89 1.23-6.01-.39-9.88-1.04-2.49-1.37-8.52-1.33-24s-.26-20.99-1.21-21.9c-1.03-.98-1.16-.06-.7 4.78.2 2.13.48 10.69.74 21.74-.74-22.25-1.4-26.16-3.46-27.15-.56-.27-1.23-.33-2.03-.48.66.09 1.23.17 1.67.25.43.08-.09-.8-1.16-1.96-1.77-1.89-2.29-1.97-5.44-.83-2.9 1.05-4.59.98-10.33-.41-8.22-2-11.08-2.08-12.78-.39-.74.75-.37 1.1 2.04 1.3-.14.01-.26.03-.34.05-.73.2-2.41.16-4.53-.03.14-.28.17-.77.07-1.34-.45-2.33-7.82-3.15-7.82-.87 0 .51.37.96 1.04 1.3-1.44-.25-2.86-.52-4.2-.82.78.03 1.16-.2 1.16-.66 0-1.33-2.3-3.2-3.95-3.21-.85 0-2.84-.67-4.41-1.5-1.58-.82-4.39-1.49-6.24-1.49-4.66 0-12.73-2.2-13.7-3.73-1.08-1.72-3.7-1.61-3.7.15 0 1.01 4.65 3.01 12.13 5.3-5.82-1.77-10.74-3.54-13.13-4.76-1.92-.99-5.03-2.29-6.9-2.88-.58-.18-1.4-.52-2.42-.98.72.25 1.17.34 1.29.21.29-.32-.05-.79-.77-1.05-.71-.25-2.73-1.8-4.5-3.43-1.76-1.64-5.45-4.12-8.2-5.52s-5.8-3.24-6.77-4.1c-1.35-1.19-2.06-1.28-2.94-.4-.63.63-.96 1.29-.72 1.46 1.69 1.19 3.7 2.49 5.83 3.8-1.82-1.06-3.64-2.15-5.4-3.23-2.45-1.5-5.37-3.53-8.48-5.86 3.69 2.71 6.66 4.64 6.94 4.34.3-.33-.02-.79-.71-1.04s-1.25-.98-1.25-1.64c0-1.68-3.35-4.36-4.83-3.86-.68.22-1.12.03-.99-.44.14-.46-.98-2.75-2.48-5.09-2.15-3.35-3.32-4.25-5.54-4.25-1.71 0-3.73-.98-5.16-2.5-1.29-1.38-3.02-2.5-3.84-2.5s-1.23-.26-.91-.58c.87-.87-2.52-4.58-10.5-11.54-2.85-2.48-4.76-4.98-4.76-6.26-.01-1.16-1.81-4.11-4-6.54-2.2-2.43-3.99-4.78-3.99-5.21 0-.44-1.41-2.4-3.13-4.36-2.92-3.33-3.02-3.69-1.5-5.37 2.63-2.9 2.07-4.39-1.37-3.64-2.56.56-3 .36-3-1.36 0-1.11-.45-2.3-1-2.64s-1-1.56-1-2.72-1.39-4.27-3.08-6.91c-1.7-2.64-3.19-5.48-3.31-6.31s-.53-1.82-.91-2.2c-.39-.38-.7-1.73-.7-2.99 0-3.08-3.9-13.37-5.07-13.37-.51 0-.93-2.37-.93-5.26 0-3.34-.73-6.62-1.98-8.96-1.18-2.21-1.58-3.93-1-4.29 1.25-.78 1.28-5.19.04-5.95-.53-.33-.97-8.36-1.01-18.24-.03-8.03-.23-15.02-.47-17.38.12-2.18.26-3.9.42-4.92.32-2.09.74-5.05 1.15-7.91-.28 2.18-.54 4.47-.78 6.91l-.46 4.5 2.03-4.32c1.42-3.03 1.99-6.17 1.9-10.5-.15-7.49.49-11.01 2.58-14.19.87-1.33 1.58-3.28 1.58-4.33s.67-2.48 1.5-3.16c1.63-1.35 1.86-5.32.5-8.5-.16-.38-.32-.69-.45-.93 1.43-3.87 3.01-7.77 4.73-11.63-.74 1.96-.71 2.81-.14 3.17 2.98 1.89 3.9 1.01 3.25-3.09-.5-3.13-.3-4.12.96-4.6.88-.34 1.88-2.15 2.24-4.03.35-1.88 1.37-3.83 2.27-4.34.91-.5 1.64-2.17 1.64-3.69 0-1.78.73-3.16 2.02-3.82 1.11-.57 3.02-2.05 4.25-3.29 2.72-2.75 9.08-3.04 13.2-.61 2.2 1.3 3.4 1.43 5.79.59 4.57-1.59 7.15 1.63 3.49 4.35-1.64 1.21-1.64 1.41-.08 3 2.37 2.4 4.71 1.23 4.08-2.04-.27-1.44-.11-2.49.38-2.33.48.16 1.03-.16 1.23-.71.07-.21 0-.45-.2-.71 1.28.99 2.33 2.06 3.09 3.18.22.32.42.65.61.97-.67-.21-.99 1.91-.64 5.6.39 4.18.14 5.96-1.04 7.26-.86.96-1.84 3.3-2.18 5.22-.34 1.91-1.04 3.91-1.56 4.43-1.16 1.18-1.25 6.55-.1 6.55.34 0 .94-.66 1.52-1.61-1.16 3.01-2.52 6.36-4.08 10.11-3.75 9.05-6.46 17.36-8.28 25.68 1.65-7.76 4-15.39 7.11-23.15 2.08-5.2 3.58-9.67 3.34-9.92-.98-.97-5.28 4.2-4.94 5.94.2 1.02-.51 2.96-1.58 4.31-1.06 1.35-1.93 3.43-1.93 4.61 0 1.19-.55 3.14-1.22 4.35-1.5 2.69-4.72 14.42-4.75 17.31-.02 1.28-.83 2.35-2.03 2.66-2.36.62-2.59 3.42-.53 6.36 1.21 1.73 1.3 3.59.51 10.48-.97 8.49-.59 12.37 1.09 11.33.51-.32.93.57.93 1.98s-.45 2.56-1 2.56c-1.49 0-1.21 3.58.61 7.78 1.37 3.16 2.24 3.2 2.14 1.47.44 1.7.89 3.59 1.3 5.42.13.57.27 1.15.41 1.75-1.09-4.12-1.3-3.96-1.81-1.43-.38 1.93-.09 4.49.72 6.37 2.2 5.04 4.05 11.73 3.88 13.99-.09 1.15.44 2.78 1.18 3.62.73.84 1.66 2.65 2.06 4.03 1.03 3.54 6.06 8.42 6.48 6.48.02.09.03.17.03.23 0 .76 2.14 4.25 4.75 7.75.36.48.73.99 1.13 1.52-.55-.6-.99-.97-1.2-.97-1.23-.01.38 4.37 1.95 5.29.75.44 1.37 1.62 1.37 2.63 0 1 .96 2.46 2.13 3.24 1.18.78 2.64 2.97 3.25 4.86.69 2.13 1.88 3.59 3.12 3.82 2.02.38 3.74 2.47 4.14 5.05.3 1.88 2.2 2.95 4.26 2.42 2.64-.69 5.58 3.21 6.02 8 .05.45.9.55 1.91.23 2.11-.66 5.74 2.72 4.71 4.39-.6.97.73 1.52 2.81 1.14 1.4-.25 4.62.99 4.51 1.73-.05.38-.04 2.01.02 3.61l.12 2.93 2.25-2.1c1.96-1.83 2.49-1.93 4.1-.74 1.09.79 1.54 1.86 1.1 2.58-.44.7-.34.96.22.61.55-.33 2.66.77 4.7 2.46 2.05 1.68 4.82 3.12 6.17 3.2 2.26.13 2.62.47 2.37 2.28-.18 1.4 2.56 2.13 4.82 1.27 3.56-1.35 5.26-1.11 5.98.84.35.96 1.13 2.08 1.72 2.48 1.41.97 8.57.98 8.56.02-.01-.41-2.83-1.79-6.25-3.05-.18-.06-.35-.13-.52-.19 1.94.7 3.99 1.43 5.59 2.01 2.92 1.05 10.79 2.89 17.5 4.08-4.34-.69-8.73-1.49-9.81-1.8-1.96-.55-1.96-.52-.14 1.52 1.24 1.39 3.4 2.2 6.5 2.45 2.55.2 5.09.41 5.64.45s2.12-.24 3.5-.63c1.58-.45 1-.84-2.7-1.5 7.53 1.16 14.23 1.45 21.58.86.14.07.51.16 1.12.27 1.38.25 2.93.86 3.45 1.36 1.23 1.19 2.02 1.16 6.68-.24 2.13-.64 3.87-1.49 3.87-1.89s1.58-1.02 3.52-1.39c2.54-.47 3.96-.23 5.07.89 2.26 2.26 4.33 1.9 5.41-.95.78-2.04 1.63-2.5 4.61-2.5 2.02 0 4.17-.64 4.78-1.42 1.38-1.76 12.81-6.58 15.61-6.58 1.14 0 2.32-.67 2.64-1.5.31-.83 1.39-1.5 2.39-1.5 3.11 0 4.97-1.14 4.97-3.06 0-1.01.79-2.3 1.75-2.86s1.49-1.03 1.17-1.05c-.25-.01-3.38 1.49-7.5 3.6 20.22-11.39 39.8-28.07 47.59-41.68 6.49-11.35 11.4-22.37 14.85-33.52-2.34 7.88-5.32 15.38-9.53 24.07l-3.39 7 3.99-4.46c2.19-2.45 4.12-5.38 4.28-6.5.17-1.2 1.17-2.17 2.43-2.35 1.93-.27 2.04-.59 1.05-3.2-.9-2.37-.69-4.09 1.11-9.33 1.21-3.53 2.2-7.21 2.2-8.18s.74-2.3 1.64-2.96c1.29-.94 1.48-2.03.89-5.11-.58-3.01-.73-3.62-1.88.59.6-2.64 1.12-5.3 1.57-7.97-.17 2.63 1.36 2.77 2.17-.45.33-1.33.19-3.46-.33-4.75-.48-1.21-.8-1.61-.93-1.19.7-5.91 1.05-11.94 1.05-18.14.01-6.29-.21-11.52-.81-16.43l1.14-2.69c.99-2.33.96-3.18-.15-4.46-.75-.87-1.36-3.19-1.36-5.17 0-3.99-.87-6.95-1.85-6.34-.36.22-.72-.74-.8-2.13-.09-1.39-1.16-3.48-2.39-4.65-2.15-2.04-2.21-2.05-1.46-.13.54 1.36 1.07 2.82 1.59 4.3-.82-2.3-1.75-4.72-2.79-7.33.24-.06.65-.56 1.15-1.45.93-1.69 1.07-3.05.43-4.25-.52-.98-1.35-1.77-1.83-1.77-.49 0-1.63-2.22-2.52-4.92-.9-2.71-2.25-5.43-2.99-6.04-.74-.62-1.65-2.34-2.02-3.82-.37-1.49-1.31-3.38-2.08-4.21-5.46-5.9-9.42-10.62-9.43-11.27-.01-.78-13.57-14.28-18.82-18.74-1.62-1.38-5.33-3.85-8.24-5.5-2.92-1.65-6.66-4.46-8.31-6.25s-3.73-3.25-4.61-3.25-3.16-1.33-5.07-2.96c-1.9-1.63-4.22-2.98-5.15-3-2.57-.06-3.05-1.68-1.43-4.81.81-1.56 1.43-3.48 1.38-4.28-.23-4.27.53-6.33 3.28-8.83 2.01-1.84 3.23-4.1 3.62-6.7.36-2.38 1.76-5.15 3.55-7.05 2.55-2.7 3.65-3.14 7.94-3.14 4.46 0 5.09.28 5.98 2.62 1.17 3.07 2.57 4.11 5.54 4.13 2.42.02 8.31 3.08 8.32 4.32.02 1.59 5.57 5.64 7.78 5.67 1.51.02 2.61.9 3.25 2.59.54 1.41 1.38 2.31 1.86 2.01.49-.3 1.45.12 2.13.94s1.83 1.49 2.56 1.49 2.53 1.58 4 3.5c1.5 1.96 4.05 3.87 5.8 4.34 2.35.62 3.04 1.3 2.75 2.74-.72 3.65-.62 4.92.38 4.76l.27-.04c3.3-.51 4.7-.73 5.38-.13.52.46.63 1.38.85 3 .58 4.25 3.78 7.19 8.93 8.19 1.14.22 2.03.29 2.46.22.95 1.17 1.85 2.31 2.67 3.39-2.33-2.79-3.38-2.6-1.18 1.28 3.62 6.37 8.64 14.27 9.69 15.25 1.64 1.53 4.43 6.29 4.43 7.56 0 .62.9 2.27 2 3.67s2 3.34 2 4.32c0 2.74 7.71 18.57 8.61 17.67.04-.04.05-.15.03-.31.53 1.35.98 2.62 1.26 3.59.06.2.12.4.18.61-.37-.82-.84-1.26-1.19-1.04-1.27.78-1.1 5.82.23 7.15.62.62 1.29 2.59 1.5 4.38s1.03 4.25 1.83 5.47c1.1 1.67 1.22 3.05.49 5.67-.7 2.57-.56 4.58.55 7.74 2.07 5.87 2.08 28.14.02 33.99-1.19 3.36-1.27 5.11-.39 8.59.97 3.84.83 4.92-1.17 9.04-1.35 2.79-2.24 6.43-2.2 9.04.04 2.39-.32 4.59-.8 4.89-.93.58-.16 3.47.92 3.47.15 0 .45-.69.83-1.85-.28 1.03-.57 2.04-.86 3.05a.3.3 0 0 0-.08-.1c-.12-.1-.32-.1-.57-.1h-.01c-1.31 0-4.79 7.09-6.13 12.5-.68 2.75-1.67 5.92-2.2 7.04-.53 1.13-1.07 2.72-1.19 3.54-.12.83-1.22 3.2-2.44 5.27s-2.22 4.41-2.22 5.21c0 2.97 1.65 1.26 4.16-4.31 1.44-3.21 2.6-5.9 3.73-8.71-.4 1.13-.71 2-.87 2.46-.46 1.38-1.79 4.42-2.96 6.76-1.17 2.35-2.56 5.27-3.09 6.5l-.15.36c-.25-.36-1.11-.36-2.57.02-2.33.61-6.68 7.86-5.68 9.48.58.93 1.38.94 2.32.1-.21.3-.42.6-.64.91-1.79 2.55-3.25 4.93-3.25 5.29 0 .19-.12.49-.34.91h-2.84c-2.56 0-2.93.32-2.56 2.26.33 1.74-1.42 4.21-7.75 10.87-4.5 4.73-8.18 9.35-8.18 10.26 0 .9-1.02 2.35-2.28 3.21-1.25.86-5.58 4.61-9.61 8.32-4.46 4.1-8.21 6.75-9.55 6.75-1.22 0-2.93.67-3.81 1.49-3.5 3.31-7.7 6.27-9.83 6.94-1.24.39-2.25 1.35-2.25 2.14 0 1.42-1.03 1.8-4.11 1.51-.88-.09-2.36.98-3.27 2.38-1.05 1.61-2.59 2.54-4.18 2.54-3.17 0-10.01 3.43-10.76 5.39-.33.85-2.16 1.62-4.3 1.8-3 .25-3.76.73-3.88 2.48-.09 1.33-.09 1.82 1.26 1.29l-.97.47.58 34.04c.19 11.33.6 25.87 1.08 38.87l-.01-.09c-.44-2.61-.73-8.8-.64-13.75.16-9.92-.3-12.5-2.21-12.5-1.81 0-1.46 22.14.43 27.25 1.22 3.32 2.24 4.34 2.59 3.22.05 1.43.11 2.83.17 4.2-.41-2.1-1.31-2.34-2.17-.09-1.19 3.09-.67 7.42.89 7.42.92 0 1.35-.8 1.46-2.98.16 3.51.32 6.71.47 9.48.22 4 .46 8.68.71 13.68-.51-8.18-1-14.18-1.24-14.18-.79 0-1.47 3.98-2.41 14.08-.49 5.31-.31 6.83.97 7.89 1.33 1.1 1.48 2.75.92 10.17-.48 6.37-.35 8.86.48 8.86 1.46 0 1.53 9.4.09 12.1-.76 1.41-.7 2.94.2 5.43 1.79 4.95 2.85 4.29 2.86-1.78v-.54c.79 20.46 1.39 32.17 2.02 38.16-.21-1.72-.41-3.74-.55-5.87-.57-8.34-1.03-10.5-2.22-10.5-1.59 0-1.41 5.87.54 17.84.75 4.64 2.59 7.65 4.2 6.89.28-.12 2.42-1.35 4.78-2.73 2.35-1.38 4.53-3.51 4.85-4.75.76-2.91 4.43-2.99 6.21-.13 1.02 1.63 1.59 1.84 2.49.93s.64-1.62-1.08-3.03c-3.12-2.55-2.83-3.68 1.5-5.9 2.06-1.05 5.1-3.54 6.74-5.52 2.12-2.54 3.81-3.6 5.75-3.6 2.28 0 2.76-.44 2.76-2.51 0-1.64 1.54-4.02 4.5-6.94 2.47-2.44 4.5-4.91 4.5-5.49s1.11-1.06 2.47-1.06c1.76 0 2.94-.9 4.08-3.1.88-1.7 3.19-4.49 5.13-6.19 1.94-1.71 3.87-4.03 4.29-5.16.53-1.42 1.65-2.05 3.64-2.05 2.54 0 2.89-.36 2.89-2.98 0-2.68.39-3.05 3.76-3.6 2.07-.33 4.09-.94 4.49-1.33.73-.74.82-1.18 1.1-5.42.13-2.05.59-2.29 3.9-2.02 3.68.31 3.74.25 3.44-2.92-.27-2.76.1-3.39 2.5-4.29 3.35-1.27 9.31-6.79 9.31-8.64 0-.71.56-1.35 1.25-1.42.69-.06 1.92-.17 2.75-.25.83-.07 1.5-1 1.5-2.06.01-1.1 1.08-2.38 2.51-3 1.38-.59 4.65-2.56 7.28-4.39 2.62-1.82 7.23-4.4 10.24-5.73 3.01-1.34 5.47-2.87 5.47-3.41 0-1.62 5.64-4.04 9.43-4.04 2.75 0 3.91-.6 5.27-2.75.97-1.51 2.21-3.08 2.78-3.48.67-.49.87-.74.62-.75.85-.3 1.65-.55 2.4-.76l.04-.01c-1.82.98-1.66 1.14 1.53 2.79 3.62 1.88 4.19 1.8 4.54-.57.12-.81-.53-1.51-1.45-1.57-3.06-.18 3.23-1.7 7.48-1.8 2.83-.07 4.33.38 4.72 1.4.32.83 1.25 1.5 2.08 1.5.92 0 1.28-.58.92-1.5-.31-.83-1.2-1.5-1.97-1.5-2.04 0-1.7-2.97.36-3.15.96-.09 2.2-.22 2.75-.3 1.92-.29 7.5-6.37 7.5-8.16 0-1.37-1.05-.77-4.32 2.44-.39.38-.84.77-1.34 1.17.31-.28.62-.57.95-.88l4.79-4.47-.42-235.08c-.26-139.85-.68-219.5-1.26-237.36 1.27 22.12 1.59 85.54 1.59 247.71.01 119.94.25 217.87.55 217.87.3-.29.51-98.42.48-218.05-.04-148.95.27-218.37.99-220.26 1.13-2.97.42-6.86-1.08-5.94-.52.32-.93-1.39-.93-3.86 0-3.61.38-4.55 2-4.97 1.69-.44 2-1.35 1.97-5.87-.02-3.1-.65-6.15-1.5-7.28-.81-1.07-1.47-3.12-1.47-4.56s-.66-3.49-1.47-4.56c-1.88-2.48-1.87-2.96.07-4.89 2.13-2.13 1.06-4.55-2.01-4.55-2.24 0-2.42.26-1.92 3.54-1.13-3.64-2.45-5.26-4.69-6.16.81.17 1.44.34 1.83.5.17.06.03-.33-.31-.88s-1.52-1-2.63-1-2.62-.61-3.36-1.35c-1.62-1.62-15.86-3.03-16.34-1.62-.42 1.2-4.17 1.3-4.17.11 0-1.36-8.28-.79-8.75.61-.44 1.33 1.61 1.56 16.25 1.8 3.08.05 7.27.39 10.99.84-19.85-.38-145.66-.83-294.76-1.03l-290.08-.39c2.45-.3.9-2.45-2.37-2.78-2.46-.24-3.5.3-5.24 2.75-1.2 1.69-3.08 3.06-4.18 3.06s-2.68.68-3.5 1.5c-.83.82-2.37 1.5-3.43 1.5-1.38 0-1.93.7-1.93 2.45 0 3.16-2.96 4.98-4.56 2.8-.62-.85-1.65-1.24-2.29-.84-1.66 1.02-1.41 3.59.35 3.59 2.05 0 1.88 2.33-.5 7-2.1 4.12-2.81 14-1 14 .55 0 1-1.5 1-3.34 0-3 .89-6.62 2.39-10.23-.14.37-.28.75-.41 1.13-2.49 7.22-4.12 30.35-3.83 54.37.02 1.7.03 4.12.03 7.13-.6.08-1.54 1.54-2.5 4.36-1.22 3.58-1.52 11.11-1.59 39.94-.06 22.73.27 35.74.91 36.14 1.3.8 1.3 6.2 0 7-1.81 1.12-.95 9.5.97 9.5.41 0 1.05-2.89 1.41-6.41.03-.32.07-.77.1-1.35-.34 38-.77 101.88-1.07 160.57-.14-31.9-.46-44.81-1.02-44.81-.62 0-1.4 2.06-1.74 4.57-.35 2.51-.64 46.8-.66 98.41-.03 89.42.12 95.38 2.62 104.77.18.69.85 1.25 1.49 1.25.84 0 .92-1.43.28-5.25-.05-.29-.1-1.04-.15-2.21.68 6.28 1.68 9.16 3.13 11.8.62 1.13 1.31 2.21 2.1 3.49.45.72.93 1.45 1.42 2.15-2.3-3.05-4.47-6.43-5.23-8.48-.21-.55-.7-.7-1.09-.34s.01 2.04.89 3.74c.87 1.69 1.58 3.31 1.57 3.59-.11 2.79.19 3.51 1.46 3.51.81 0 2.26 1.24 3.22 2.75 2.24 3.51 3.26 4.22 6.12 4.23 1.28.01 3.02.72 3.88 1.58 1.19 1.19 2.75 1.41 6.68.92 2.88-.35 6.21-.17 7.62.43 1.38.58 4.3.86 6.5.62 2.2-.23 10.8-.59 19.12-.8 17.55-.44 19.26-1.17 22.95-9.9 1.17-2.76 2.71-5.38 3.42-5.82.75-.47 1.06-1.72.73-2.96-.54-2.08 1.92-8.17 3.59-8.9 1.63-.72 5.69-5.28 5.69-6.4 0-.63 1.43-2.63 3.18-4.44 2.22-2.29 3.27-4.41 3.46-7.04l.24-3.19a97 97 0 0 1 3.41-3.61c-1.7 2.17-1.84 3.53.21 3.53.82 0 1.55-.56 1.62-1.25.06-.69.07-1.57.01-1.97s.9-1.26 2.13-1.91c1.23-.66 3.72-2.67 5.54-4.48 3.31-3.3 6.49-3.63 5.97-.63-.15.84.36 1.75 1.14 2.02 1.39.49 1.37.32-.62-4.54-.3-.73.87-1.84 2.85-2.68 1.85-.78 5.37-3.25 7.82-5.49s5.15-4.1 6-4.14c4.73-.21 7.72-1.05 10.19-2.88 1.52-1.13 3.57-2.06 4.56-2.08.98-.02 2.66-.69 3.73-1.5 1.28-.97 1.5-1.4.71-1.46 2.42-.63 4.87-1.2 7.35-1.69 3.3-.66 7.67-1.14 12.47-1.43-2.54 1.07 2.04 1.84 10.63 1.59 7.49-.21 10.12.1 12.97 1.55 2.33 1.19 4.73 1.63 6.91 1.28 2.21-.36 4.13.01 5.66 1.07 1.35.95 2.03 1.43 2.74 1.49.74.06 1.51-.35 3.1-1.18l.11-.05c2.17-1.14 2.88-1.14 4.44 0 1.02.75 2.55 1.36 3.41 1.36.86-.01.09-.91-1.71-2-1.7-1.04-3.87-1.89-5.01-1.99 1.08.08 3 .7 4.45 1.44 1.11.56 4.23 2.07 7.82 3.77a.15.15 0 0 0-.08.04c-.77.77 5.65 5.82 6.63 5.21.48-.29 1.62.61 2.53 2 .96 1.47 2.61 2.53 3.91 2.53 1.24 0 3.48.97 4.98 2.15 2.2 1.72 2.62 2.71 2.16 5-.64 3.2.78 3.74 3.86 1.49 1.02-.75 2.76-1.13 3.85-.84.63.16 1.05.2 1.27.12 1.29 1.25 3.07 3.03 5.06 5.07-2.69-2.59-4.78-4.12-5.62-3.84-.99.33 2.23 4.04 16.58 19.05 1.81 1.89 1.22 4.8-.97 4.8-1.43 0-4.35 5.63-3.41 6.57.28.28 1.66-.85 3.07-2.53 3.21-3.81 4.22-3.82 5.54-.04.58 1.65 1.74 3 2.6 3 .99 0 1.55.91 1.55 2.51 0 1.39.42 3.3.93 4.25.51.96 1.15 2.47 1.42 3.36.28.94 1.55 1.63 2.99 1.63 1.75 0 2.24-.11 1.92-1.21.52 1.3 1.03 2.66 1.49 4l-.96 2.74c-1.04 2.96-.39 6.21 1.06 5.31.48-.29 1.17 3.1 1.54 7.55.37 4.44 1.34 9.66 2.14 11.59 1.69 4.04 1.94 7.68.47 6.77-.59-.37-1 .8-1 2.88 0 1.93.45 3.78 1 4.12s1 3.97 1 8.06c0 4.29-.42 7.44-1 7.44-.55 0-1 1.8-1 4 0 4.75 1.29 5.06 2.19 1.36-.05.26-.1.51-.15.73-.5 2.19-1.3 4.98-2.24 7.9 1.01-4.24 1.02-6.92-.82-3.96-.75 1.2-1.28 1.24-2.9.24-2.67-1.65-3.64.1-1.64 2.95 1.69 2.41 2.1 7.33.68 8.21-1.18.73-2.06 5.57-1.02 5.57.37 0 .96-.53 1.42-1.24-1.01 2.43-1.91 4.34-2.54 5.24-.96 1.38-2.43 4.13-3.26 6.13-.84 1.99-2.01 3.93-2.62 4.31-.6.37-1.1 1.39-1.1 2.26 0 .25-.09.57-.25.97.01-.15-.01-.26-.07-.32-1.05-1.06-4.68 1.8-4.68 3.69q0 2.895 1.8 1.2c-3.04 3.99-7.9 9.41-13.07 14.64 3.54-3.64 5.91-6.49 5.23-6.72-1.83-.62-5.82 2.74-7.53 6.34-1.04 2.19-2.28 3.43-3.28 3.27-.88-.15-1.67.29-1.75.98s-.21 1.7-.28 2.25c-.06.55-1.71 1-3.66 1-2.89 0-4.35.84-8 4.59-2.45 2.53-4.46 4.91-4.46 5.29s-.95.77-2.11.85c-1.16.09-2.89.86-3.83 1.72-.94.85-2.04 1.55-2.43 1.55s-1.93.89-3.42 1.97c-2.32 1.69-3.33 1.83-7.01.99-3.83-.88-4.64-.73-7.5 1.41-7.11 5.32-9.44 5.93-24.2 6.33-15.85.44-18.89.86-17.89 2.48.01.01.01.02.02.03q-1.98-.195-3.84-.45c.78-.12 1.15-.45.97-1.01-.23-.69-2.18-1.37-4.34-1.53-3.58-.25-6.05-1.02-10.55-3.27-.89-.45-3.37-1.08-5.5-1.41l-3.87-.6 4 1.64c2.08.85 5.22 2.19 7.18 3.06-6.66-2.92-11.74-4.64-13.73-4.64-1.71 0-6.6-2.18-12.29-5.34 5.74 3.12 10.68 5.27 12.34 5.24 2.06-.03 2.18-.17.68-.76-2.3-.91-2.3-1.94 0-3.73 1.62-1.26 1.37-1.34-2.35-.79-3.82.56-4.19.42-4.5-1.76-.28-2-.82-2.31-3.56-2.05-5.27.51-13.51-5.93-13.72-10.73-.03-.78-.69-1.63-1.46-1.88-1-.34-1.24.13-.84 1.65.5 1.89.33 2-1.6.99-1.18-.62-2.51-1.74-2.95-2.49-.44-.74-1.56-1.36-2.5-1.36-.93-.01-3.46-1.51-5.6-3.32l-3.91-3.31 2.33-2.17c1.29-1.19 2.06-2.45 1.71-2.79-.76-.76-6.73 1.78-6.73 2.87 0 .1.04.23.12.38-.5-.56-.99-1.11-1.48-1.68.13-.2 0-1.5-.31-3.07-.4-2.01-.18-3.38.64-3.88.9-.56.97-1.3.27-2.56-.93-1.66-1.08-1.63-2.15.37-.97 1.82-1.44 1.97-3.07.95-1.06-.66-2.06-2.57-2.22-4.24-.23-2.35-.85-3.12-2.73-3.38l-2.26-.32c-.82-1.36-1.59-2.72-2.3-4.07.73 1.25 1.19 1.55 1.33.84.19-1.02-.41-3.71-1.35-5.98-2.1-5.07-3.07-7.14-5.45-11.63-1.02-1.92-2.14-5.35-2.49-7.61-.89-5.81-2.6-7.85-5.89-7.02-3.42.86-3.42 2.41 0 2.81.47.06.87.14 1.23.28l-26.48-.66c-3.99-.1-7.94-.23-11.65-.37.08-.18.08-.4 0-.65-.22-.67-1.5-1.53-2.83-1.9-3.26-.91-13.82-.87-16.93.07-2.32.7-2.35.78.69 1.35-1-.11-1.75-.21-2.19-.31-2.75-.61-7.25-1.48-10-1.94a43 43 0 0 1-5.5-1.29c1.48.19 1.52-.7 1.21-2.78-.42-2.84-.65-2.99-3.82-2.39-2.91.54-3.79.2-6.29-2.48-2.36-2.53-3.69-3.11-7.11-3.11-3.61 0-4.1-.25-3.48-1.75 2.04-4.96 1.92-5.57-.95-5.02-3.32.64-10.56-3.68-10.56-6.3 0-1.78-2.56-3.32-4.02-2.42-.99.62-1.94-.72-2.47-3.48-.21-1.09-1.31-2.98-2.45-4.19-1.13-1.22-2.06-3.37-2.05-4.78 0-1.68-1.11-3.48-3.25-5.24l-3.26-2.68-.22-163.82c-.12-90.1-.32-192.84-.44-228.32l-.18-50.23c.07-5.44.14-10.57.22-15.36.07.39.15.59.25.59.35 0 .96-1.01 1.36-2.25 1.32-4.09 1.56-21.11.35-25.01-.85-2.74-.87-4.37-.08-6 1.17-2.43 2.45-15.05 2.65-26.24.08-4.11.74-8.08 1.61-9.62 4.59-8.11 6.98-12.97 6.98-14.18 0-.75 1.24-2.55 2.75-3.99 3.28-3.13 4.55-4.36 8.08-7.86 1.61-1.59 4.35-2.91 6.92-3.33 2.69-.44 4.25-1.22 4.25-2.12 0-1.5 5.59-5.39 7.75-5.4.69 0 1.25.68 1.25 1.5 0 1.96.91 1.89 3.28-.25 1.73-1.57 5.29-1.8 33.78-2.26 19.53-.31 32.25-.9 32.87-1.52.69-.69-10.82-.89-35.63-.62l-36.66.39.03-.01 109.41-1.21c58.29-.64 158.97-.96 270.96-.88-127.67.05-229.26.42-229.26.84 0 0 .01 0 .02.01 1.82.43 3.58 1.06 3.92 1.39.34.34 107.33.62 237.76.62 206.96 0 237.38-.19 239.08-1.47M398.7 683.13c1.21-2.12 2.71-6.95 3.34-10.74s1.77-8.06 2.52-9.49c1.22-2.3 1.14-3.06-.61-6.5-1.51-2.95-1.84-4.94-1.36-8.16.36-2.4.16-5.46-.47-7-.6-1.51-1.26-3.64-1.45-4.74-.48-2.78-6.25-14.38-8.94-17.99-1.23-1.64-4.25-5.66-6.73-8.93s-4.79-6.37-5.14-6.89-1.83-1.07-3.29-1.23c-3.24-.36-5.78-2.3-4.89-3.74.41-.67.01-.82-1.07-.4-1.13.43-2.59-.21-4.24-1.86-1.38-1.38-3.05-2.4-3.69-2.27-.65.14-4.26-1.22-8.03-3.02-8.09-3.86-12.16-4.82-13.97-3.32-.97.81-1.91.67-3.61-.52-1.98-1.38-3.24-1.45-8.94-.49-3.64.61-8.43 1.39-10.63 1.73-2.2.33-4.52 1.04-5.15 1.56s-2.15 1.14-3.38 1.38c-1.24.23-3.13 1.23-4.21 2.21s-2.15 1.67-2.36 1.53c-.22-.14-2.33-.25-4.69-.25-4.13 0-4.56.31-11.75 8.5-4.1 4.68-8.21 8.74-9.13 9.04-.91.3-2.13 1.87-2.69 3.5-.57 1.63-1.47 2.96-2.01 2.96s-1.48 1.54-2.1 3.41c-.62 1.88-1.78 3.66-2.58 3.97s-1.45 1.39-1.45 2.4-.68 2.71-1.5 3.78c-1.41 1.83-1.56 1.84-2.55.19-1.41-2.35-2.95-2.22-2.95.25 0 1.33.67 2 2 2 1.63 0 2 .67 2 3.58 0 2.66 1.08 3.78 1.93 2.99-.56.79-.93 7.17-.93 16.14v15.6l1.8 4.52c-1.03-1.54-1.8-.46-1.8 3.2 0 2.69.51 4.23 1.52 4.62 1.11.42 1.37 1.45.95 3.72-.51 2.79.09 3.82 5.48 9.52 3.33 3.52 6.05 6.78 6.05 7.27 0 .48 1.01 2.43 2.25 4.34 1.74 2.69 2.93 3.48 5.25 3.49 2.03.01 3.92.98 5.84 3.01 1.56 1.65 3.28 3 3.84 3 .55 0 2.15.9 3.55 2s3.31 2 4.25 2 2.52.9 3.52 2c1.28 1.42 3.08 2 6.15 2 2.39 0 4.35.43 4.35.95 0 .85 2.82 1.15 17.5 1.85 2.2.1 5.29-.48 6.86-1.31 1.58-.82 4.37-1.49 6.2-1.49 1.82 0 3.6-.45 3.94-1s1.49-1 2.56-1 1.94-.38 1.94-.85-2.14-.3-4.75.37c-6.44 1.67-20.85 2.54-29.38 1.88 8.89.45 24.01-.48 29.89-2.01 3.56-.93 6.78-2.12 9.92-3.75-2.68 1.47-4.68 2.71-4.68 2.92 0 .8 2.02.46 5.28-.91 1.77-.73 3.85-2.1 4.61-3.02.8-.97 2.15-1.44 3.18-1.11 1.28.41 3.56-1.28 8.11-6.03 3.47-3.64 6.47-7.03 6.65-7.55.19-.52.95-.94 1.69-.94 1.68 0 2.47-1.22 3.11-4.77.27-1.5.97-2.9 1.55-3.11.59-.2 1.94-1.24 3.01-2.31 1.54-1.54 1.7-2.24.76-3.37-.97-1.17-2.02-.23-5.94 5.35-6.18 8.81-18.18 19.96-25.9 24.07l-.04.02c5.04-2.85 9.99-6.9 15.93-12.86 10.34-10.37 14.7-16.9 18.81-28.19.32-.86.6-1.64.84-2.37-.73 2.37-1.75 5.08-3.19 8.79-1.25 3.25 1.02 1.76 3.24-2.12m273.1-306.45c1.59-4.39 1.52-7.17-.22-8.62-1.05-.87-1.28-2.59-.86-6.62.38-3.68.2-5.44-.56-5.44-.77 0-1.06 3.72-.94 12 .09 6.6.44 12 .78 12 .33 0 1.14-1.49 1.8-3.32M413 587.87c0-.5-1.16-1.44-2.57-2.09-1.42-.64-3.23-2.43-4.03-3.97-2.17-4.2-4.09-3.54-3.43 1.19.28 2.03 3.09 5.07 5.53 5.99 2.24.84 4.5.27 4.5-1.12m-132.91 12.22c.87-.88 2.45-2.13 3.5-2.79 1.58-.99 1.67-1.36.5-2.16-3.76-2.55-11.57 5.24-8.75 8.73.92 1.14 1.28 1.07 2.13-.41.57-.98 1.74-2.5 2.62-3.37m334.62-116.56c7.12-4.62 8.03-5.43 8.58-7.55.53-2.01.4-1.99-2.62.44-1.74 1.4-5.07 3.8-7.38 5.32-4.07 2.67-5.32 4.26-3.33 4.26.52 0 2.66-1.11 4.75-2.47M264 648.5c0-5.83-1.48-7.34-2.69-2.75-1.04 3.95-.18 8.25 1.66 8.25.58 0 1.03-2.39 1.03-5.5m449.69 2.93 2.81-2.56-3.95.65c-2.17.35-4.8 1.24-5.84 1.97-1.83 1.28-1.83 1.34-.05 1.8 3.48.9 4.24.7 7.03-1.86m-96-160 2.81-2.56-4 .65c-4.9.81-7.23 2.4-5.3 3.63 2.14 1.35 3.54.98 6.49-1.72m77.77-178.36c.32-.52-.17-2.8-1.08-5.07-2.13-5.34-3.97-3.92-2.41 1.87 1.07 4 2.3 5.12 3.49 3.2M235.83 696.94c-.56-1.62-1.41-2.94-1.87-2.94-1.8 0-2.02 2.16-.53 5.17.86 1.72 1.61 3.86 1.66 4.73.04.88.46.34.92-1.21.51-1.67.43-3.99-.18-5.75m154.66-307.92c.78-3.51.02-5.15-2.02-4.37-1.97.76-2.02 7.35-.05 7.35.78 0 1.72-1.34 2.07-2.98M599 532.85c0-1.28-4.07-2.65-6.21-2.08-2.22.58-2.3 1.85-.19 3.02 1.87 1.05 6.4.39 6.4-.94M148 151c0-2.75-.4-5-.89-5-1.18 0-2.32 6.29-1.52 8.37 1.23 3.2 2.41 1.55 2.41-3.37m408.83 454.55c.44-3.77-1.3-5.41-2.79-2.62-1.32 2.46-.44 6.37 1.29 5.8.65-.21 1.32-1.64 1.5-3.18M92.67 293.82c-.25 50.41-.47 122.5-.53 183.48L92 626.11l.06-141.81c.02-67.41.25-133.69.61-190.48m303.97 182.67c.32-.83-.15-2.63-1.05-4-1.97-2.99-4.18-3.47-2.63-.56.57 1.07 1.04 2.87 1.04 4 0 2.4 1.79 2.78 2.64.56m203.5-231.58c-2.6-2.11-6.53-2.59-5.91-.73.42 1.26 6.93 3.86 7.77 3.1.28-.25-.56-1.31-1.86-2.37m92.29 463.52c1.44-1.44 2.19-4.43 1.12-4.43-.25 0-1.6 1.15-3 2.55s-2.55 2.75-2.55 3c0 1.07 2.99.32 4.43-1.12M264 662.42c0-2.43-.41-3.45-1.25-3.17-2.35.78-2.16 6.75.22 6.75.57 0 1.03-1.61 1.03-3.58m413.31-383.6c-.59-3.06-3.1-4.52-3.96-2.3-.33.86.42 2.29 1.79 3.4 1.3 1.05 2.43 1.83 2.52 1.74s-.07-1.37-.35-2.84m-83.77 460.12c.87-1.41-.32-5.94-1.56-5.94-.54 0-.98 1.58-.98 3.5 0 3.41 1.22 4.58 2.54 2.44M282 64c1.06-.68-.26-.97-4.5-.97s-5.56.29-4.5.97c.83.53 2.85.97 4.5.97s3.67-.44 4.5-.97m158 410c0-1.1-.19-2-.42-2s-1.13-.27-2-.61c-1.89-.72-2.15 1.64-.38 3.41 1.76 1.76 2.8 1.47 2.8-.8M277 715.56c0-1.89-1.7-2.89-3.66-2.14-1.27.49-1.33.89-.33 2.09 1.58 1.9 3.99 1.93 3.99.05M538 510c0-.55-1.83-1-4.06-1-2.45 0-3.81.4-3.44 1 .34.55 2.17 1 4.06 1s3.44-.45 3.44-1m142-44.44c0-1.74-1.64-2.9-2.96-2.09-1.33.83-.13 3.53 1.57 3.53.76 0 1.39-.65 1.39-1.44m-84 370.83c0-1.6-2.58-1.89-3.5-.39-.34.55-.35 1.43-.03 1.96.83 1.33 3.53.13 3.53-1.57M170 102.5c1.05-1.27.84-1.5-1.38-1.5-1.66 0-2.62.55-2.62 1.5 0 .82.62 1.5 1.38 1.5s1.94-.68 2.62-1.5m462.41 133.9c2.04-.79 1.05-2.4-1.47-2.4-1.94 0-2.53 1.08-1.27 2.33.31.32.5.51.73.58.36.12.81-.05 1.98-.5Zm-164.7 297.22c-.69-2.07-3.71-1.9-3.71.21 0 1.5.49 1.85 2.04 1.45 1.12-.29 1.87-1.04 1.67-1.66M781 619.67c0-.74-.3-1.63-.66-1.99-.9-.91-3.45 1.33-2.77 2.43.85 1.38 3.43 1.05 3.43-.44M107 632c0-1.11-.67-2-1.5-2-1.52 0-2.05 2.12-.83 3.33 1.26 1.27 2.33.66 2.33-1.33m336-115.5c0-.83-.89-1.5-2-1.5-1.99 0-2.6 1.07-1.33 2.33 1.21 1.22 3.33.69 3.33-.83m-14.35 192.96c.33-.85.33-1.82 0-2.15-.87-.86-3.73 1.75-3.08 2.8.85 1.38 2.43 1.05 3.08-.65m-81.71-118.78c-3.71-.74-7.58-.81-16.29-.8-4.15.01-8.05.12-10.97.29 1.85-.13 4.05-.24 6.34-.3 5.82-.15 10.85-.73 11.31-1.32.56-.72.98-.65 1.33.2.28.69 2.02 1.25 3.88 1.25 1.04 0 2.57.25 4.4.68M356 556.5c0-.83-.89-1.5-2-1.5-2.21 0-2.71 1.55-.75 2.34 2.18.88 2.75.7 2.75-.84m56.98-112.25c-.03-1.73-1.84-3.45-2.92-2.79-.88.54-.87 1.06.01 2.13 1.26 1.51 2.94 1.89 2.91.66M603 231.92c0-2.44-2.34-2.1-2.82.41-.19.99.32 1.67 1.25 1.67.92 0 1.57-.85 1.57-2.08m-238.88 105.8c-1.55-1.55-2.43-.26-1.59 2.37.65 2.04.79 2.08 1.69.48.67-1.19.63-2.12-.1-2.85m191.45 314.6c-.67-1.73-.76-1.73-1.69-.06-1.21 2.14-.14 4.4 1.37 2.89.56-.56.7-1.83.32-2.83M319 581c1.14-.74.72-.97-1.75-.98-1.79-.01-3.25.43-3.25.98 0 1.27 3.03 1.27 5 0m421 100.89c0-.49-.9-.89-2-.89-1.95 0-2.61 1.06-1.4 2.26.8.81 3.4-.24 3.4-1.37M401 618.5c0-.83-.67-1.5-1.5-1.5-1.56 0-1.98 1.18-.83 2.33s2.33.73 2.33-.83m207 128.92c0-1.77-2.15-1.46-2.77.39-.22.66.32 1.19 1.19 1.19s1.58-.71 1.58-1.58m62-421.53c0-.49-.67-.89-1.5-.89s-1.5.66-1.5 1.47c0 .89.59 1.24 1.5.89.83-.31 1.5-.98 1.5-1.47M684 284c0-.55-.93-1-2.06-1s-1.78.45-1.44 1 1.27 1 2.06 1 1.44-.45 1.44-1m-324 80.94c0-1.13-.45-1.78-1-1.44s-1 1.27-1 2.06.45 1.44 1 1.44 1-.93 1-2.06M578 512c0-.55-.65-1-1.44-1s-1.72.45-2.06 1 .31 1 1.44 1 2.06-.45 2.06-1m-172-95.13c-.19-.52-.35-.98-.46-1.37-.68-2.21-1.77-3.88-2.45-3.73-.68.16-.99-.13-.68-.63.31-.49-.27-4.16-1.28-8.14-.04-.17-.08-.34-.13-.51.96 3.53 2.11 7.06 2.94 8.88 1.1 2.42 2.01 4.85 2.06 5.5m69.05 110.63c-.08-1.48-2.31-1.21-2.83.35-.28.84.17 1.21 1.22 1 .92-.19 1.64-.8 1.61-1.35m-80.69 84.01c-.31-.83-.97-1.25-1.46-.95-1.42.88-1.05 2.44.57 2.44.89 0 1.24-.59.89-1.49M351 581c0-.55-.67-1-1.5-1s-1.5.45-1.5 1 .67 1 1.5 1 1.5-.45 1.5-1m67 143.5c0-.83-.45-1.5-1-1.5s-1 .67-1 1.5.45 1.5 1 1.5 1-.67 1-1.5M94.52 141.9c.16-5.53.32-9.56.49-11.89.54-7.49 1.13-13.46 1.87-18.42-.87 7.12-1.74 18.94-2.36 30.31m558.29 321.02c-.2-.59-.79-1.07-1.31-1.07s-1.11.48-1.31 1.07c-.2.6.39 1.08 1.31 1.08s1.51-.48 1.31-1.08m-240.3 44.03c-2.41-2.13-4.69-4.25-6.7-6.24-1.01-1-2.06-2.08-3.13-3.2 3.06 3.11 5.5 5.25 6.07 5.03.74-.28 1.12-.15.84.31-.26.43 1.03 2.24 2.92 4.1m135.33 181.04c.27 7.27.54 20.57.66 33.51.17 18.99.79 43.87 1.52 64.8-.73-20.77-1.36-45.52-1.57-64.8-.08-7.04-.3-19.1-.61-33.51M143 76c0-.55-.45-1-1-1s-1 .45-1 1 .45 1 1 1 1-.45 1-1m190.09 696.78c7.43-.27 16.26-1.01 20.74-1.97-5.58 1.33-13.13 1.97-20.74 1.97m430.56-156.2c-3.91 1.86-8.01 3.24-10.62 3.39 4.8-1.39 8.12-2.42 10.62-3.39M611.09 536.6c4.26-2.08 10.14-5.18 15.25-8.07-7.56 4.5-11.07 6.34-15.25 8.07M790.42 63.86c7.41.52 8.96 1.22 10.01 2.21-.81-.7-5.09-1.57-10.01-2.21M452.96 479.4c-3.91-3.08-8.06-6.74-12.63-11.13-4.18-4.02-7.27-7.14-9.92-10.11 5.84 6.43 15.3 15.26 22.55 21.24M99.41 99.94c.78-2.51 1.69-4.76 2.75-6.94 1.56-3.19 3.78-6.42 6.49-9.53-4.12 4.9-7.2 10.4-9.24 16.47m169.12 531.2c.82-1.81 1.84-3.94 3.09-6.46 1.41-2.87 5.1-8.04 8.66-12.48-3.72 4.74-7.66 10.49-9.35 14.01-.82 1.72-1.68 3.48-2.4 4.93m557.74 9.48c.27-1.94.53-4.3.73-6.62.16-1.83.36-3.69.57-5.36-.1 2.23-.19 3.88-.3 4.86-.24 2.38-.61 4.92-1 7.12M361.72 319.84c-.25.87-.51 1.77-.77 2.69-1.86 6.42-3.17 12.35-4.21 19.25.07-.47.13-.91.18-1.33.83-6.21 2.49-13.26 4.8-20.61m-88.79 373.79c-2.05-3.74-3.83-7.84-5.37-12.36l.45 1.13c1.73 4.36 3.69 8.82 4.92 11.23m440.8-331.32c-.01-.27-.02-.54-.02-.81-.4-16.61-.9-23.4-2.58-28.8.34.98.65 1.96.9 2.8.85 2.95 1.47 14.58 1.7 26.81m-267.9 294.94c-.38-10.02-1.25-20.16-2.24-22.47-.87-2.04-1.59-5.5-1.59-7.68.01 2.21.73 5.65 1.6 7.68 1.13 2.61 1.95 12.46 2.23 22.47m-14.37-56.33c-3.3-5.61-8.72-12.74-13.75-18.5 5.64 6.31 10.35 12.65 13.75 18.5m-66.72-52.93c-1.3-.09-4.42-.71-7.28-1.46-2.52-.66-7.54-1.27-12.99-1.73 5.12.29 9.54.8 12.36 1.54 3.23.85 6.62 1.55 7.91 1.65M660 325.73c-.15-.38-.31-.76-.46-1.15-1.2-2.94-2.48-5.81-3.83-8.59 2.33 4.49 4.05 8.27 4.29 9.74M239.56 590.25c-5.58 8.08-10.56 16.92-10.56 19.23 0-2.23 3.52-8.85 9.21-17.28q.66-.99 1.35-1.95M605.32 539c-2.2.97-4.5 2.02-6.17 2.83l-2.02.98c.49-.26 1.05-.55 1.68-.89 3.01-1.61 5.94-2.92 6.51-2.92m41.87-237.9c-2.89-4.32-6.04-8.44-9.48-12.39 2.51 2.79 4.75 5.53 6.62 8.13.87 1.22 1.84 2.67 2.86 4.26m126.76-177.32c.05.13.1.24.15.34.38.74.71 2.53 1 5.87-.41-2.38-.79-4.43-1.15-6.21M561.67 848.07c-2.75-2.82-5.36-6.38-6.78-9.59-.39-.87-.8-2.12-1.19-3.58 1.5 4.98 3.91 8.84 7.88 13.08ZM374.33 603.11c-3.2-2.5-6.49-4.55-10.21-6.35 1.73.79 3.31 1.59 4.61 2.36 1.69.99 3.6 2.36 5.6 3.99m91.23-115.21c-.78-.45-1.57-.92-2.38-1.4-.32-.19-.65-.39-.98-.59q.285.09.48.09c.37 0 1.37.64 2.24 1.42.15.13.36.29.64.48m-72 137.47a64 64 0 0 0-6.46-9.62c1.95 2.33 3.61 4.59 4.78 6.56.51.86 1.08 1.92 1.68 3.06m-100.57-74.56c-3.81 1.43-8.15 3.2-11.69 4.79 3.77-1.79 7.68-3.39 11.69-4.79m125.32-256.5c.51-2.86.74-5.52.63-7.64.26 2.08.07 4.53-.63 7.64M278.45 701.97a57.5 57.5 0 0 1-4.56-6.66c1.79 2.69 3.25 4.85 4.56 6.66m434.11-305.69c.52-3.66.86-7.39 1.07-11.53-.11 3.02-.27 5.57-.49 7.4-.15 1.29-.34 2.68-.58 4.13m12.45 235.74c-6.73 3.84-13.91 8.32-19.01 11.96 5.76-4.11 12.46-8.29 19.01-11.96m-565.8-512.85c1.08-1.11 4.12-3.06 7.35-4.88-3.46 2.06-6.68 4.19-7.35 4.88m267.36 334.38c-1.55-1.97-3.04-4.06-4.67-6.45 1.7 2.32 3.36 4.62 4.52 6.25.05.07.1.13.15.2M146.98 232.58c.01-7 .06-13.54.13-19.01-.03 5.86-.08 12.29-.13 19.01M265 640.5c.35-.37.65-1.05.82-2.08.04-.27.11-.56.2-.9-.01.15-.02.28-.02.41 0 1.07-.45 2.23-1 2.57m553.41 16.93c-2.81 3.9-5.97 7.55-8.62 9.76 2.46-2.05 5.83-5.99 8.62-9.76M385.04 273.56c-3.55 2.67-6.72 8.13-11.94 18.31l-.06.12c.25-.5.51-1 .76-1.49 4.78-9.29 7.81-14.39 11.24-16.94m23.22 1.11c-3-1.21-6.73-2.31-9.94-2.77 3.58.51 6.99 1.48 9.94 2.77m-250.27 349.1c.26.2.5.37.73.5 1.62.95 4.54 1.72 8.62 2.32-3.87-.54-6.69-1.24-8.28-2.06-.3-.16-.66-.42-1.07-.76m531.32-160.08c.75-1.34 1.66-2.8 2.31-3.7-.58 1.03-1.3 2.19-2.31 3.7m-116.17 37.75c-1.71.58-3.57 1.21-5.64 1.9-1.1.37-2.46.76-3.96 1.15 2.46-.69 5.35-1.62 9.6-3.05m73.87 284.68c-1.33 1.85-2.83 3.92-4.28 5.9-1.28 1.76-2.73 3.76-4.15 5.75 2.77-3.88 5.85-8.15 8.43-11.65M436.84 610.29c-.56-1.12-1.21-2.31-1.71-3.11-.62-.99-1.58-2.61-2.39-4.01.82 1.4 1.79 3.02 2.42 4.01.54.84 1.11 1.91 1.68 3.11m-210.76 90.78c.74 1.66 1.69 3.83 2.59 5.91.19.43.36.83.54 1.21-.46-.96-.89-1.9-1.29-2.84-.6-1.43-1.27-2.98-1.84-4.28M709.95 329.5c-.14-.33-.28-.66-.44-1-.64-1.41-1.4-3.52-1.85-5.04.64 1.93 1.36 3.9 1.87 5.04.13.29.27.63.42 1m-26.86-57.31c2.26 3.22 4.08 5.83 5.53 7.94-1.85-2.63-3.97-5.68-5.53-7.94M406.64 743.8c-3.74 3.5-7.33 6.57-10.21 8.6-.03.03-.07.05-.1.07.03-.02.07-.04.1-.07 2.77-1.96 6.57-5.22 10.21-8.6m261.42-353.62c-.04.79-.26 2.41-.54 3.91.2-1.3.38-2.6.54-3.91M257.31 743.75c1.74 1.5 3.54 2.99 5.28 4.39-1.78-1.4-3.55-2.87-5.28-4.39m434.88-458.29c1.22 1.9 1.7 2.84 1.79 3.37-.12-.51-.79-1.76-1.79-3.37m-28.68-36.21c-2.35-2.28-4.56-4.29-6.01-5.42 1.64 1.27 3.72 3.17 6.01 5.42M397.99 376.43c-.09 4.29-.48 7.76-.95 8.05h-.01c.47-.31.87-3.78.96-8.05m-127.93 185.3c-1.3.81-2.57 1.64-3.8 2.47 1.25-.85 2.51-1.67 3.8-2.47m-48.82 126.54.42 1.23c.61 1.84 1.27 3.73 1.84 5.32-.57-1.59-1.23-3.48-1.85-5.32Zm445.75-341.32c.2.88.37 1.68.49 2.39-.15-.8-.31-1.59-.49-2.39M478.63 494.87c-1.09-.52-2.18-1.05-3.27-1.61 1.08.54 2.17 1.08 3.27 1.61m198.16-12.46a220 220 0 0 1-3.82 4.59c1.26-1.48 2.6-3.09 3.82-4.59m-266.68-55.99c-.08-.16-.15-.33-.24-.49-.16-.34-.33-.69-.5-1.05.04.08.09.17.13.26.21.43.41.86.61 1.28m-9.28 140.2c-.44-.31-.9-.64-1.37-.98.48.34.94.67 1.37.98m-94.56 202.7c-.24-.09-.48-.19-.7-.29.23.1.46.2.7.29m295.79-30.82c.03.04.07.08.1.1-.01-.01-.01-.01-.02-.01-.03-.02-.05-.05-.08-.09"/><path fill="#22AFE3" d="M823.61 88.22c-3.63-7.21-5.31-9.47-12.44-16.78-3.03-3.1-5.15-4.44-7.05-4.44-1.5 0-3.15-.41-3.67-.91-.01 0-.02-.01-.02-.02-1.05-.99-2.6-1.69-10.01-2.21-3.91-.5-8.23-.86-11.53-.86-2.11 0-3.62.09-4.51.22-2.51-.06-5.28-.11-8.32-.17-8.48-.85-55.58-.97-239.56-.92-3.5.01-6.99.01-10.46.01-39.77-.03-78.11-.01-113.63.06 168.67-.42 383.12-.15 390.09.85 11.68 1.68 14.11 2.7 20.39 8.51 4.37 4.04 7.2 7.93 10.73 14.72l4.8 9.22.82 261.5c.5 160.67.52 239.82.02 263.78l-1.47.96c1-36.7 1.31-140.01.19-143.23-.71-2.04-1.04-63.36-1.02-193.29l.03-190.29ZM157.99 623.77c-.06-.05-.11-.11-.17-.16 4.12 2.43 11.21 2.55 30.26 3 18.43.43 27.27.28 29.23-.49 2.23-.89 3.86-3.31 7.84-11.65 2.89-6.05 6.6-12.48 10.62-18.57-4.23 6.64-6.77 11.69-6.77 13.58 0 .86-1.1 3.24-2.44 5.29s-2.73 4.92-3.08 6.39c-.36 1.46-1.62 3.56-2.81 4.66-2 1.85-3.66 2.03-20.67 2.21-13.83.14-25.19-.38-32.66-1.44-4.08-.6-7-1.37-8.62-2.32-.23-.13-.47-.3-.73-.5m389.85 64.22c.31 14.41.53 26.47.61 33.51.07 7.16.21 15.07.39 23.24-.32-6.74-.63-11.46-.87-12.8-.53-3.06-1-21.73-1.04-41.5-.03-15.91-.21-33.14-.49-49.81.16 3.84.34 6.81.52 8.96.23 9.51.46 18.96.65 27.84-.38-.51-.35 1.24.01 6.07.07.95.15 2.49.22 4.49m-102.26-10.66c.55-3.68.57-11.84.25-20.08-.28-10.01-1.1-19.86-2.23-22.47-.87-2.03-1.59-5.47-1.6-7.68v-.16c-.02-1.61-.29-3.65-.68-5.21 1.79 5.16 3.2 10.48 4.26 16.02 1.93 10.08 1.84 31.44-.16 40.55l-.02.05c.07-.32.12-.66.18-1.02m257.53-365.62c-1.64-3.04-3.29-7.25-3.66-9.37-.37-2.11-1.75-5.72-3.06-8.02-1.32-2.3-2.39-4.71-2.39-5.36 0-.03-.01-.08-.02-.13-.09-.53-.57-1.47-1.79-3.37-.11-.18-.22-.36-.34-.55 2.85 4.26 4.66 7.16 5.51 8.81 3.68 7.15 8.98 21.46 12.32 33.28.79 2.81 1.41 5.02 1.9 7.03-.14-.44-.29-.89-.45-1.33-.34-1.1-.73-2.14-1.18-3.2-.15-.37-.29-.71-.42-1-.51-1.14-1.23-3.11-1.87-5.04-.07-.25-.14-.49-.19-.7-.11-.43-.24-.82-.39-1.15-.06-.21-.12-.41-.18-.61-.28-.97-.73-2.24-1.26-3.59-.14-.84-1.15-3.15-2.53-5.7m-305.49 77.3c-.97-2.42-1.2-4.15-.59-4.53h.01c.47-.29.86-3.76.95-8.05.01-.57.02-1.15.02-1.74 0-3.87.14-7.65.41-11.36-.3 4.83-.29 9.66.01 14.54 1.06 16.97 5.27 34.94 11.05 47.23-.03-.07-.07-.15-.11-.22-1.27-2.72-2.59-5.85-3.37-8.01-.05-.65-.96-3.08-2.06-5.5-.83-1.82-1.98-5.35-2.94-8.88q-.3-1.17-.54-2.07c-.14-.6-.28-1.18-.41-1.75-.41-1.83-.86-3.72-1.3-5.42-.06-.95-.41-2.44-1.13-4.24m131.06 164.63c-6.48-.33-13.67-1.04-20.02-1.92.03-.04.06-.08.09-.13 2.12.19 3.8.23 4.53.03.08-.02.2-.04.34-.05.94.08 2.18.13 3.78.17 5.06.14 16.88 1.16 22.22 1.87.8.15 1.47.21 2.03.48.35.17.65.42.93.82-1.88-.42-7.61-.96-13.9-1.27M766.8 113.43c-1.55-.95-3.28-1.63-10.69-2.12 2.25.03 4.06.05 5.38.08 2.55.3 4.87.65 6.49.99 2.24.9 3.56 2.52 4.69 6.16l.03.21c.28 1.84.82 3.96 1.25 5.03.36 1.78.74 3.83 1.15 6.21.11 1.2.2 2.6.3 4.22.05 1.62.1 3.75.15 6.38-.65-12.73-1.6-16.7-2.98-19.77-1.31-2.93-3.38-5.92-4.6-6.65-.43-.26-.79-.51-1.17-.74M305.52 769.01l.05.02c.22.1.45.19.68.28l.02.01c1.64.68 3.26 1.23 4.74 1.64-11.61-2.24-22.7-6.61-34.37-13.41.68.38 1.35.75 2.02 1.11 5.69 3.16 10.58 5.34 12.29 5.34 1.99 0 7.07 1.72 13.73 4.64.11.05.22.09.32.14.17.08.35.15.52.23m520.75-128.39c.39-2.2.76-4.74 1-7.12.11-.98.2-2.63.3-4.86.32-2.59.68-4.72.94-5.51l.75-2.25c-.09 4-.19 6.44-.3 7.46-.64 5.76-1.57 10.42-3.07 14.78.12-.7.25-1.55.38-2.5M356.91 336.28c.32-.6.97-2.55 1.7-5.03-.74 3.21-1.3 6.3-1.69 9.2-.05.42-.11.86-.18 1.33-.21 1.39-.4 2.82-.59 4.31-.41 2.86-.83 5.82-1.15 7.91-.16 1.02-.3 2.74-.42 4.92l-.03-.3c.51-11.39 1.4-20.57 2.36-22.34m186.87 222.73c.57 3.79.93 10.43 1.33 22.23.09 4.12.19 8.58.27 13.19-.5-16.39-1.06-29.28-1.6-35.42M290.82 62.63c-17.18.11-32.54.24-45.74.39l-60.44.67 46.39-.57c15.28-.18 35.72-.35 59.79-.49M777 606.73v-45.82l.08 45.74ZM385.04 273.56c-3.43 2.55-6.46 7.65-11.24 16.94-.25.49-.51.99-.76 1.49-.35.69-.68 1.33-.98 1.94 3.13-6.56 6.4-12.47 9.36-16.7 1.74-2.49 3.54-4.09 5.87-4.97-.78.33-1.53.76-2.25 1.3m328.69 88.75v-.01c-.17-8.84-.54-17.38-1.05-22.54.62 4.58.78 10.09 1.05 21.35.1 3.98.15 7.88.14 11.55-.01-3.15-.06-6.57-.14-10.35M287.99 552.68c-2.27.91-4.5 1.88-6.69 2.92-2.15.96-4.01 1.86-5.28 2.58-1.91 1.07-3.79 2.19-5.62 3.33 3.02-1.94 5.94-3.65 8.52-4.94 2.53-1.27 5.67-2.61 9.07-3.89m509.93 121.64c4.17-1.65 7.42-3.59 10.66-6.14-2.53 2.13-5.02 3.83-7.08 4.72-1.16.49-2.34.97-3.58 1.42m-481.74 97.49c.22-.01.43-.02.61-.05q1.86.255 3.84.45c.04.04.1.09.18.13-1.56-.14-3.1-.32-4.63-.53m93.1-452.31c-3.88 9.36-6.71 18.24-8.54 26.92.09-.41.17-.82.26-1.24 1.82-8.32 4.53-16.63 8.28-25.68M251.07 576.53c-.29.33-.55.64-.78.94a97 97 0 0 0-3.41 3.61v-.01a99 99 0 0 1 2.95-3.27c.38-.41.8-.83 1.24-1.27m180.39 24.39c-.35-.6-.71-1.21-1.09-1.82 1.39 2.19 2.69 4.4 3.9 6.65-.49-.82-1.04-1.74-1.52-2.58h-.01c-.23-.41-.45-.81-.65-1.16-.2-.36-.41-.72-.63-1.09m383.24 61.26a73 73 0 0 0 3.71-4.75c.32-.42.63-.85.92-1.26-1.28 1.98-2.87 4.04-4.63 6.01M554.88 838.46c-.8-1.8-1.43-3.78-1.96-6.61.23 1.07.49 2.08.78 3.05.39 1.45.8 2.69 1.18 3.56M354.17 385.65c.15 6.7.45 12.06 1.02 16.97-.6-5.01-.89-10.38-1.02-16.97m359.59-4.25c-.11 4.52-.32 8.26-.62 10.75.22-1.82.38-4.38.49-7.4.05-1.08.1-2.2.13-3.35M438.6 699.62c-1.01 2.46-1.93 4.39-2.62 5.38.63-.9 1.53-2.81 2.54-5.24.03-.05.06-.09.08-.14m-181.29 44.13c1.73 1.52 3.5 2.99 5.28 4.39.16.13.33.26.5.39a121 121 0 0 1-6.16-5.11c.12.11.25.22.38.33M176.6 109.97h4.9ZM680.08 268l-.02-.03a135.519 135.519 0 0 1 .02.03m4.62 6.49-1.61-2.3-.18-.26c.62.88 1.21 1.73 1.79 2.56M439.76 617.52l-.01.02c-.05-.13-.09-.26-.14-.39.05.12.1.24.15.37m62.28-66.84-.34-.06c.11.02.22.04.34.06m-91.93-124.26-.05-.12c.05.12.11.24.17.35-.04-.07-.08-.15-.12-.23"/><path fill="#FEFEFE" d="M0 435V0h860v870H0zm584.56 417.53c1.07-.81 2.78-1.48 3.8-1.5s3.72-1.45 6-3.19c9.06-6.92 30.79-30.5 38.21-41.48 2.16-3.2 6.73-9.66 10.16-14.34 3.43-4.69 7.15-9.87 8.27-11.52 4.89-7.22 9-13.75 9-14.29 0-.32.95-1.6 2.12-2.84 2.03-2.16 9.29-12.34 16.31-22.87 5.77-8.67 19.61-23.37 32.74-34.8 14.02-12.2 34.08-20.49 60.83-25.13 14.11-2.46 22.4-4.61 29.5-7.67 5.32-2.3 13.46-9.94 17.85-16.76 5.86-9.1 8.32-16.23 9.61-27.8.79-7.07.87-83.48.28-271.34l-.82-261.5-4.8-9.22c-3.53-6.79-6.36-10.68-10.73-14.72-6.28-5.81-8.71-6.83-20.39-8.51-9.96-1.43-442.55-1.38-561.47.07l-95.47 1.16-8.53 4.61c-10.94 5.91-20.5 15.18-24.87 24.11-3.96 8.12-5.73 17.25-7.15 37.01-1.53 21.32-2.89 184.23-2.95 354.29L92 626.11l4.85 9.29c6.4 12.28 9.73 16.96 16.85 23.74 10.29 9.8 23.7 17.09 34.8 18.91 2.75.46 7.25 1.33 10 1.94 2.75.62 17.56 1.43 32.91 1.81l27.91.7 2.33 7c1.29 3.85 2.76 7.9 3.28 9s1.86 4.18 2.99 6.85c7.13 16.85 24.56 36.76 42.15 48.15 22.63 14.66 42.43 20.31 66.93 19.12 6.88-.33 14.98-1.28 18-2.1 3.02-.83 7.63-1.99 10.24-2.59s5-1.51 5.31-2.01c.31-.51 1.24-.92 2.06-.92 2.49 0 16.45-7.38 23.82-12.6 11.01-7.78 32.57-30.76 32.57-34.7 0-.87.5-1.89 1.1-2.26.61-.38 1.78-2.32 2.62-4.31.83-2 2.3-4.75 3.26-6.13 2.37-3.4 7.5-17.9 9.44-26.7 2-9.11 2.09-30.47.16-40.55-4.32-22.59-14.53-41.66-32.01-59.79-4.75-4.93-8.85-8.96-9.1-8.96-.26 0-3.27-2.07-6.7-4.59-3.43-2.53-10.52-6.6-15.76-9.06-5.23-2.45-10.78-5.11-12.34-5.9-1.56-.8-3.66-1.45-4.67-1.45s-4.69-.75-8.17-1.66c-9.19-2.4-35.32-2.42-47.33-.02-9.45 1.88-22.84 6.37-30.58 10.25-9.18 4.6-22.74 14.5-29.09 21.23-8.73 9.26-18.55 23.84-24.68 36.67-3.98 8.34-5.61 10.76-7.84 11.65-1.96.77-10.8.92-29.23.49-30.82-.73-30.35-.59-36.62-10.78-7.05-11.47-6.88-6.87-6.1-161.75.37-75.12.97-162 1.34-193.08.36-31.07.56-64.41.45-74.07-.29-24.02 1.34-47.15 3.83-54.37 1.75-5.1 4.45-9.48 8.23-13.39.71-.73 4.31-3.1 8.01-5.26l6.72-3.94 291.3.05c306.57.04 295.66-.11 302.73 4.15 1.22.73 3.29 3.72 4.6 6.65 4.13 9.23 4.42 26.47 4.42 264.29l.01 221.62-4.75 4.43c-4.68 4.38-7.08 5.39-23.75 10.1-9.73 2.74-28.77 12.92-42.5 22.72-8.34 5.95-26.26 22.49-68.13 62.9-29.68 28.64-34.19 32.66-35.7 31.73-1.17-.73-1.95-11.63-3.22-45.11-.57-14.85-1.7-39.15-2.52-54s-1.75-42.32-2.06-61.03l-.58-34.04 5.36-2.6c2.94-1.43 7.82-3.59 10.85-4.79 5.73-2.29 9.58-4.38 22.46-12.2 8.18-4.96 29.13-23.01 32.76-28.22 1.2-1.72 4.68-6.04 7.75-9.62 5.89-6.89 10.03-12.49 10.03-13.58 0-.36 1.46-2.74 3.25-5.29 4.25-6.06 5.55-8.16 6.72-10.87.53-1.23 1.92-4.15 3.09-6.5 1.17-2.34 2.5-5.38 2.96-6.76.47-1.38 2.26-6.33 3.99-11 4.4-11.91 8.82-29.72 10.13-40.85.68-5.71.91-17.97.59-31.04-.5-20.94-.63-22-4.05-34.11-3.34-11.82-8.64-26.13-12.32-33.28-1.6-3.12-6.61-10.64-15.55-23.35-5.83-8.29-18.19-21.79-24.31-26.54-2.75-2.14-7.25-5.69-10-7.89-5.01-4.01-19.96-14.53-23.43-16.48-1.02-.57-3.6-2.25-5.75-3.74-2.16-1.5-6.01-2.99-8.63-3.35-4.58-.63-4.87-.51-8.66 3.47-4.93 5.19-11.58 18.81-12.97 26.58-.91 5.09-.82 6.18.6 7.75.91 1.01 2.22 1.83 2.92 1.83s2.54 1.07 4.09 2.37c1.56 1.3 7.62 5.6 13.48 9.55 24.25 16.34 40.14 35.47 50.39 60.66 7.73 19.02 9.65 28.38 9.64 46.92-.01 27.18-6.61 51.02-21.17 76.45-10.55 18.44-42.75 42.5-68.82 51.43-14.54 4.98-16.96 5.68-24.41 7.1-14.79 2.82-25.11 2.99-38.47.62-6.71-1.19-14.58-3.03-17.5-4.08s-7.33-2.64-9.81-3.53c-5.78-2.09-22.02-10.23-24.08-12.07-.87-.78-1.87-1.42-2.24-1.42-3.58 0-29.89-23.69-36.26-32.65-2.16-3.04-6.06-8.38-8.67-11.89-2.61-3.5-4.75-6.99-4.75-7.74s-1.41-4.26-3.12-7.79c-5.98-12.31-10.37-30.71-11.45-48.06-1.19-19.19 2.22-37.57 10.85-58.37 10.42-25.11 11.78-32.15 7.47-38.53-2.91-4.31-10.22-7.9-18.43-9.07-9.16-1.29-13.14-.04-16.9 5.33-7.67 10.95-17.42 33.18-21.38 48.77-1.19 4.67-2.6 9.3-3.13 10.28-1.59 2.93-2.99 26-2.78 45.9.21 21.03 1.7 29.83 8.35 49.37 5.53 16.26 17.9 40.24 22.85 44.32.92.76 1.67 1.83 1.67 2.39 0 1.64 10.72 14.44 18.81 22.45 8.18 8.1 20.85 18.32 28.69 23.13 9.76 5.99 21.25 12.18 24.6 13.24 1.87.59 4.98 1.89 6.9 2.88 3.42 1.75 11.99 4.6 21 6.99 2.48.65 5.85 1.58 7.5 2.07 6.65 1.95 21.72 3.99 34.18 4.62 7.26.36 13.77 1.02 14.48 1.46 1.54.95 3.66 77.04 3.77 135.34.04 19.77.51 38.44 1.04 41.5.54 3.06 1.46 23.78 2.05 46.06 1.18 44.58 1.92 53.81 4.86 60.46 2.86 6.48 10.52 14.33 14.45 14.82 7.55.95 13.36.66 15.23-.75M318 726.06c-6.49-.94-14.83-4.61-24.5-10.79-10.24-6.55-11.64-7.98-19.74-20.15-.96-1.44-3.54-7.16-5.75-12.72L264 672.31v-15.6c0-9.31.4-15.84 1-16.21.55-.34 1-1.5 1-2.57 0-1.08.43-2.74.96-3.69.53-.96 2.31-4.57 3.97-8.03 3.15-6.59 14.19-20.94 16.91-21.98.88-.33 4.08-2.24 7.12-4.24 3.05-2 8.46-4.69 12.04-5.97 3.58-1.29 7.02-2.74 7.65-3.23.64-.48 7.84-.89 16-.91 13.82-.02 15.45.18 23.58 2.91 11.78 3.97 18.93 8.36 27.27 16.76 7.74 7.8 12.43 15.03 16.35 25.21 2.37 6.16 2.6 8.02 2.62 21.74.02 13.79-.2 15.59-2.66 22.33-4.11 11.29-8.47 17.82-18.81 28.19-10.16 10.19-17.4 14.81-27.24 17.37-6.86 1.79-26.31 2.75-33.76 1.67"/></svg>