<?xml version="1.0" encoding="UTF-8"?>
<svg version="1.1" xmlns="http://www.w3.org/2000/svg" width="153" height="114">
<path d="M0 0 C1.65099449 -0.00744736 1.65099449 -0.00744736 3.33534241 -0.01504517 C6.93816778 -0.02952646 10.54094927 -0.03644211 14.14379883 -0.04199219 C15.38143793 -0.04481956 16.61907703 -0.04764694 17.89422035 -0.05056 C23.76215604 -0.06395784 29.63007605 -0.0738778 35.49802607 -0.07776189 C42.24051394 -0.0822519 48.98280004 -0.09986613 55.72522658 -0.12876248 C61.59478719 -0.15303553 67.4642807 -0.16070827 73.3338871 -0.16243744 C75.81972674 -0.16545882 78.30556562 -0.17346993 80.7913723 -0.18662262 C84.26601863 -0.20370855 87.74017227 -0.20179733 91.21484375 -0.1953125 C92.23478424 -0.20452728 93.25472473 -0.21374207 94.30557251 -0.22323608 C101.01968039 -0.18405413 106.95485963 0.46379293 112.43676758 4.73925781 C112.8827832 5.29097656 113.32879883 5.84269531 113.78833008 6.41113281 C114.48055664 7.22324219 114.48055664 7.22324219 115.18676758 8.05175781 C118.45736742 13.67635626 118.69952229 19.42829965 118.64038086 25.75854492 C118.64067291 26.58862061 118.64096497 27.41869629 118.64126587 28.27392578 C118.63988151 30.99555205 118.62436275 33.71689859 118.60864258 36.43847656 C118.60490926 38.33419139 118.6020638 40.22990816 118.60006714 42.12562561 C118.59245576 47.09865713 118.5728288 52.07157057 118.55065918 57.04455566 C118.53014688 62.12571618 118.52105393 67.20689589 118.51098633 72.28808594 C118.48958047 82.24581991 118.45547478 92.20346652 118.41333008 102.16113281 C101.83209275 102.81005839 85.25369481 103.37525327 68.66333008 103.72363281 C67.68661346 103.74447937 66.70989685 103.76532593 65.70358276 103.7868042 C53.12806593 104.05130491 40.5542542 104.2601963 27.97583008 104.28613281 C26.21384277 104.29302124 26.21384277 104.29302124 24.41625977 104.30004883 C-7.42016723 104.24245761 -7.42016723 104.24245761 -16.89526367 95.18847656 C-22.90426358 87.98600323 -23.77672147 79.49261907 -23.60839844 70.41162109 C-23.59879089 69.65972 -23.58918335 68.90781891 -23.57928467 68.13313293 C-23.54649481 65.66580237 -23.5060874 63.19866015 -23.46557617 60.73144531 C-23.44125545 59.01366831 -23.41741289 57.29588448 -23.39402771 55.57809448 C-23.33138094 51.07027367 -23.26225994 46.56257472 -23.19177246 42.05487061 C-23.1209131 37.4497225 -23.05620168 32.84448842 -22.9909668 28.23925781 C-22.86220483 19.21312163 -22.7266004 10.18710228 -22.58666992 1.16113281 C-15.03885695 0.35652923 -7.58806327 0.00836636 0 0 Z " fill="#00AEEE" transform="translate(26.586669921875,6.8388671875)"/>
<path d="M0 0 C1.65099449 -0.00744736 1.65099449 -0.00744736 3.33534241 -0.01504517 C6.93816778 -0.02952646 10.54094927 -0.03644211 14.14379883 -0.04199219 C15.38143793 -0.04481956 16.61907703 -0.04764694 17.89422035 -0.05056 C23.76215604 -0.06395784 29.63007605 -0.0738778 35.49802607 -0.07776189 C42.24051394 -0.0822519 48.98280004 -0.09986613 55.72522658 -0.12876248 C61.59478719 -0.15303553 67.4642807 -0.16070827 73.3338871 -0.16243744 C75.81972674 -0.16545882 78.30556562 -0.17346993 80.7913723 -0.18662262 C84.26601863 -0.20370855 87.74017227 -0.20179733 91.21484375 -0.1953125 C92.23478424 -0.20452728 93.25472473 -0.21374207 94.30557251 -0.22323608 C101.01968039 -0.18405413 106.95485963 0.46379293 112.43676758 4.73925781 C112.8827832 5.29097656 113.32879883 5.84269531 113.78833008 6.41113281 C114.48055664 7.22324219 114.48055664 7.22324219 115.18676758 8.05175781 C118.45736742 13.67635626 118.69952229 19.42829965 118.64038086 25.75854492 C118.64067291 26.58862061 118.64096497 27.41869629 118.64126587 28.27392578 C118.63988151 30.99555205 118.62436275 33.71689859 118.60864258 36.43847656 C118.60490926 38.33419139 118.6020638 40.22990816 118.60006714 42.12562561 C118.59245576 47.09865713 118.5728288 52.07157057 118.55065918 57.04455566 C118.53014688 62.12571618 118.52105393 67.20689589 118.51098633 72.28808594 C118.48958047 82.24581991 118.45547478 92.20346652 118.41333008 102.16113281 C101.83209275 102.81005839 85.25369481 103.37525327 68.66333008 103.72363281 C67.68661346 103.74447937 66.70989685 103.76532593 65.70358276 103.7868042 C53.12806593 104.05130491 40.5542542 104.2601963 27.97583008 104.28613281 C26.21384277 104.29302124 26.21384277 104.29302124 24.41625977 104.30004883 C-7.42016723 104.24245761 -7.42016723 104.24245761 -16.89526367 95.18847656 C-22.90426358 87.98600323 -23.77672147 79.49261907 -23.60839844 70.41162109 C-23.59879089 69.65972 -23.58918335 68.90781891 -23.57928467 68.13313293 C-23.54649481 65.66580237 -23.5060874 63.19866015 -23.46557617 60.73144531 C-23.44125545 59.01366831 -23.41741289 57.29588448 -23.39402771 55.57809448 C-23.33138094 51.07027367 -23.26225994 46.56257472 -23.19177246 42.05487061 C-23.1209131 37.4497225 -23.05620168 32.84448842 -22.9909668 28.23925781 C-22.86220483 19.21312163 -22.7266004 10.18710228 -22.58666992 1.16113281 C-15.03885695 0.35652923 -7.58806327 0.00836636 0 0 Z M-14.58666992 9.16113281 C-14.67958108 18.41053338 -14.75054148 27.65977189 -14.79391861 36.90953827 C-14.81474345 41.20516002 -14.84296687 45.50046116 -14.88842773 49.79589844 C-14.9320689 53.94563422 -14.95584537 58.09506271 -14.96617889 62.24501038 C-14.97353765 63.82378472 -14.98790744 65.40254332 -15.00959015 66.98118591 C-15.24717737 78.65139295 -15.24717737 78.65139295 -10.58666992 89.16113281 C-8.73921232 91.04000685 -8.73921232 91.04000685 -6.64916992 92.09863281 C-6.00077148 92.47890625 -5.35237305 92.85917969 -4.68432617 93.25097656 C-0.56237174 95.03945958 3.48787599 95.28508001 7.93798828 95.2746582 C9.01873123 95.27458267 10.09947418 95.27450714 11.21296692 95.27442932 C12.36834457 95.26926804 13.52372223 95.26410675 14.71411133 95.25878906 C15.90562302 95.25737411 17.0971347 95.25595917 18.32475281 95.25450134 C22.12513758 95.24891009 25.92546315 95.23635913 29.72583008 95.22363281 C32.30460527 95.21861668 34.88338138 95.21405397 37.4621582 95.20996094 C43.77925658 95.19979502 50.09622715 95.18021772 56.41333008 95.16113281 C56.41333008 85.59113281 56.41333008 76.02113281 56.41333008 66.16113281 C53.11333008 64.51113281 49.81333008 62.86113281 46.41333008 61.16113281 C41.73865707 56.25842698 41.25494334 53.19367221 41.31176758 46.64941406 C41.41726101 44.06482494 41.74632551 41.66239993 42.41333008 39.16113281 C43.73333008 39.16113281 45.05333008 39.16113281 46.41333008 39.16113281 C46.24833008 39.80050781 46.08333008 40.43988281 45.91333008 41.09863281 C44.64752886 48.19751682 44.64752886 48.19751682 46.35473633 55.00488281 C48.89291578 58.25120638 51.3927497 60.29957987 55.41333008 61.16113281 C61.51894985 61.05012154 64.2050217 59.26924337 68.41333008 55.16113281 C70.01989437 51.94800424 69.89180906 48.64627028 69.41333008 45.16113281 C66.97782338 40.43690025 66.97782338 40.43690025 62.41333008 38.16113281 C62.74333008 36.84113281 63.07333008 35.52113281 63.41333008 34.16113281 C67.83659386 35.51268564 69.8174599 37.36003719 72.41333008 41.16113281 C74.00561655 45.93799224 74.40766662 50.6195551 72.54223633 55.38769531 C69.683594 60.39266254 66.58804977 62.72597061 61.41333008 65.16113281 C61.29951052 71.927073 61.53311639 78.44950343 62.41333008 85.16113281 C62.86063477 84.77441406 63.30793945 84.38769531 63.76879883 83.98925781 C65.6447617 82.37328979 67.5281317 80.76631219 69.41333008 79.16113281 C70.68176758 78.07832031 70.68176758 78.07832031 71.97583008 76.97363281 C74.41333008 75.16113281 74.41333008 75.16113281 80.41333008 72.16113281 C80.41333008 54.67113281 80.41333008 37.18113281 80.41333008 19.16113281 C68.90943368 19.10298696 68.90943368 19.10298696 57.40551758 19.06347656 C52.71536754 19.05150839 48.02529539 19.03733112 43.33520508 19.01025391 C39.55509969 18.9885662 35.7750778 18.97657283 31.99491501 18.97137833 C30.55077169 18.96767522 29.10663307 18.96044421 27.66252518 18.9496727 C25.64412114 18.93521265 23.62563356 18.93431636 21.60717773 18.93408203 C20.45690094 18.92964081 19.30662415 18.92519958 18.12149048 18.92062378 C15.26418953 18.88241775 15.26418953 18.88241775 13.41333008 21.16113281 C13.10726958 23.41053686 13.10726958 23.41053686 13.15454102 26.03808594 C13.14823669 27.05253784 13.14193237 28.06698975 13.13543701 29.11218262 C13.13948547 30.21114868 13.14353394 31.31011475 13.14770508 32.44238281 C13.14579163 33.56680786 13.14387817 34.69123291 13.14190674 35.84973145 C13.14054391 38.23038964 13.14424714 40.61105524 13.15258789 42.99169922 C13.16328578 46.64600234 13.15269563 50.29981382 13.13989258 53.95410156 C13.14121416 56.2626964 13.14377651 58.57129094 13.14770508 60.87988281 C13.14365662 61.97884888 13.13960815 63.07781494 13.13543701 64.21008301 C13.14174133 65.22453491 13.14804565 66.23898682 13.15454102 67.28417969 C13.1561322 68.17971558 13.15772339 69.07525146 13.15936279 69.9979248 C13.21160945 72.37263429 13.21160945 72.37263429 15.41333008 74.16113281 C18.37102185 74.66123805 18.37102185 74.66123805 21.41333008 74.16113281 C23.36491493 72.39335161 23.36491493 72.39335161 24.41333008 70.16113281 C24.41333008 69.50113281 24.41333008 68.84113281 24.41333008 68.16113281 C29.53939257 65.92669532 34.08098635 65.5045775 39.41333008 67.16113281 C42.34170805 69.61140826 43.98013776 71.36034159 44.88598633 75.12597656 C45.18328595 79.09759454 44.46610809 81.06749441 42.47583008 84.59863281 C38.47882441 87.94306612 35.52832719 88.38626473 30.41333008 88.16113281 C26.97583008 87.59863281 26.97583008 87.59863281 24.41333008 86.16113281 C23.03833008 83.03613281 23.03833008 83.03613281 22.41333008 80.16113281 C21.65407227 80.06316406 20.89481445 79.96519531 20.11254883 79.86425781 C19.11868164 79.71472656 18.12481445 79.56519531 17.10083008 79.41113281 C16.11469727 79.27191406 15.12856445 79.13269531 14.11254883 78.98925781 C10.81270475 77.97685992 10.14974078 77.09436869 8.41333008 74.16113281 C8.03910828 71.61901855 8.03910828 71.61901855 8.04101562 68.72167969 C8.03478683 67.63375122 8.02855804 66.54582275 8.0221405 65.42492676 C8.03135025 64.25506226 8.04056 63.08519775 8.05004883 61.87988281 C8.04955032 60.67424683 8.04905182 59.46861084 8.04853821 58.22644043 C8.05087836 55.67779899 8.06060333 53.12915522 8.07714844 50.58056641 C8.10073891 46.67622238 8.09770877 42.77256123 8.09106445 38.86816406 C8.09664127 36.39289957 8.10375116 33.91763795 8.11254883 31.44238281 C8.11163742 30.27251831 8.11072601 29.10265381 8.10978699 27.89733887 C8.119319 26.8094104 8.12885101 25.72148193 8.13867188 24.60058594 C8.14327927 23.64446411 8.14788666 22.68834229 8.15263367 21.70324707 C8.42625163 19.03513161 8.96840746 17.40779513 10.41333008 15.16113281 C13.37740567 13.67909502 16.03412173 14.04192455 19.34155273 14.04760742 C20.41000679 14.04738838 20.41000679 14.04738838 21.50004578 14.04716492 C23.85919214 14.04786271 26.21825997 14.05564885 28.57739258 14.06347656 C30.21121172 14.06534122 31.84503142 14.0667649 33.47885132 14.06776428 C37.78281188 14.07158572 42.08673879 14.08141284 46.39068604 14.09246826 C51.55270696 14.10448708 56.71473912 14.1090864 61.87677002 14.11492157 C69.72231346 14.12462478 77.56778303 14.14378394 85.41333008 14.16113281 C85.41333008 34.95113281 85.41333008 55.74113281 85.41333008 77.16113281 C82.11333008 78.48113281 78.81333008 79.80113281 75.41333008 81.16113281 C70.68523926 84.10305599 67.9093175 88.25412775 65.41333008 93.16113281 C65.41333008 93.82113281 65.41333008 94.48113281 65.41333008 95.16113281 C75.63109875 95.30392772 85.81185965 95.04139633 96.02270508 94.65722656 C97.31418457 94.60981323 98.60566406 94.5623999 99.9362793 94.5135498 C103.09534699 94.39738612 106.25435872 94.27988258 109.41333008 94.16113281 C109.50603694 83.94724381 109.57709859 73.733455 109.62057877 63.51923084 C109.64144783 58.77625981 109.669753 54.03357677 109.71508789 49.29077148 C109.75857 44.71311808 109.78247231 40.13574157 109.79283905 35.55789757 C109.80022619 33.81197437 109.81465166 32.06606622 109.83625031 30.320261 C109.86531637 27.87341263 109.86928484 25.4277063 109.86743164 22.98071289 C109.88181274 22.25998093 109.89619385 21.53924896 109.91101074 20.79667664 C109.88303049 17.3792423 109.47894857 15.27478671 107.75994873 12.29740906 C103.02267407 7.98476656 97.85716968 7.86852456 91.71264648 7.91821289 C90.96337891 7.91631454 90.21411133 7.9144162 89.44213867 7.91246033 C86.96628285 7.90876148 84.49072245 7.91947027 82.01489258 7.93066406 C80.26166823 7.93185977 78.50844324 7.9323082 76.75521851 7.93205261 C73.0648806 7.9336176 69.37463963 7.94188904 65.68432617 7.95532227 C61.05679758 7.97199031 56.42937757 7.97606205 51.80182266 7.97549629 C29.65437366 7.97622608 7.54445149 8.29176097 -14.58666992 9.16113281 Z " fill="#26ACE2" transform="translate(26.586669921875,6.8388671875)"/>
<path d="M0 0 C1.03196503 -0.00744736 1.03196503 -0.00744736 2.08477783 -0.01504517 C4.36455275 -0.02967101 6.64425811 -0.03646893 8.92407227 -0.04199219 C10.50586449 -0.04774265 12.08765668 -0.05350039 13.66944885 -0.05926514 C16.98748093 -0.06977588 20.30548877 -0.07561827 23.62353516 -0.07910156 C27.87864903 -0.08459098 32.13344366 -0.10862799 36.3884573 -0.13707352 C39.65608157 -0.15567996 42.92362857 -0.16090439 46.19130135 -0.16243744 C47.76022146 -0.16546828 49.32914009 -0.17351134 50.89800835 -0.18662262 C53.09110839 -0.2036445 55.28342352 -0.20181301 57.4765625 -0.1953125 C58.72517563 -0.19895813 59.97378876 -0.20260376 61.26023865 -0.20635986 C64.30297852 0.16113281 64.30297852 0.16113281 66.2033844 1.31512451 C67.7728543 3.94996442 67.69878401 5.99462355 67.72290039 9.05371094 C67.74676819 10.87074524 67.74676819 10.87074524 67.77111816 12.7244873 C67.77131958 14.03389282 67.771521 15.34329834 67.77172852 16.69238281 C67.77882896 18.04854651 67.78652778 19.4047072 67.7947998 20.76086426 C67.80824553 23.60221715 67.8098128 26.44329217 67.80395508 29.28466797 C67.79805367 32.92695405 67.82866509 36.56790953 67.86907196 40.20993805 C67.89491194 43.01010324 67.89782998 45.80994625 67.8941803 48.61021423 C67.89669856 50.60614328 67.92142174 52.60200413 67.94641113 54.59777832 C67.93710571 55.80913452 67.92780029 57.02049072 67.91821289 58.26855469 C67.92026733 59.33650269 67.92232178 60.40445068 67.92443848 61.50476074 C67.30297852 64.16113281 67.30297852 64.16113281 64.95202637 65.97473145 C62.30297852 67.16113281 62.30297852 67.16113281 59.30297852 68.03613281 C53.15181888 70.34281768 49.7033538 76.09411885 45.85375977 81.17285156 C44.30297852 83.16113281 44.30297852 83.16113281 42.30297852 85.16113281 C38.76726423 84.62541853 38.76726423 84.62541853 37.30297852 83.16113281 C37.14423896 80.94425287 37.05164014 78.72257983 36.98657227 76.50097656 C36.96579117 75.83651016 36.94501007 75.17204376 36.92359924 74.48744202 C36.85804193 72.35794738 36.79919066 70.22832613 36.74047852 68.09863281 C36.69729913 66.65786434 36.65368503 65.21710882 36.60961914 63.77636719 C36.50235459 60.23809241 36.40110481 56.69967412 36.30297852 53.16113281 C35.05387695 52.73960938 33.80477539 52.31808594 32.51782227 51.88378906 C29.17017792 50.62722342 27.07503478 49.49671935 24.86547852 46.59863281 C24.39239258 45.99921875 23.91930664 45.39980469 23.43188477 44.78222656 C20.48346571 40.54833761 20.96523519 36.16444676 21.30297852 31.16113281 C22.30297852 28.03613281 22.30297852 28.03613281 23.30297852 26.16113281 C24.62297852 26.16113281 25.94297852 26.16113281 27.30297852 26.16113281 C27.25657227 27.11375 27.21016602 28.06636719 27.16235352 29.04785156 C27.12625977 30.30210938 27.09016602 31.55636719 27.05297852 32.84863281 C27.00657227 34.09 26.96016602 35.33136719 26.91235352 36.61035156 C27.36668467 40.74022173 28.40179887 42.25995317 31.30297852 45.16113281 C35.46718273 47.63714613 38.67163283 47.31896923 43.30297852 46.16113281 C46.00865478 44.33774229 47.8402657 43.08655845 49.30297852 40.16113281 C49.81164318 34.05715685 49.3600147 31.05344115 45.30297852 26.16113281 C44.64297852 25.83113281 43.98297852 25.50113281 43.30297852 25.16113281 C43.63297852 23.51113281 43.96297852 21.86113281 44.30297852 20.16113281 C49.33670696 21.59934094 51.2925374 24.06358797 54.30297852 28.16113281 C55.89370704 32.93331839 56.32808473 37.6425529 54.39672852 42.38769531 C51.73822027 46.93783443 48.94328916 49.68630047 44.30297852 52.16113281 C43.64297852 52.16113281 42.98297852 52.16113281 42.30297852 52.16113281 C42.96297852 58.43113281 43.62297852 64.70113281 44.30297852 71.16113281 C45.66422852 69.73800781 47.02547852 68.31488281 48.42797852 66.84863281 C51.89495114 63.37620039 54.69886947 60.84556295 59.30297852 59.16113281 C59.96297852 59.16113281 60.62297852 59.16113281 61.30297852 59.16113281 C61.30297852 41.67113281 61.30297852 24.18113281 61.30297852 6.16113281 C49.77459015 6.30987437 49.77459015 6.30987437 38.24633789 6.46777344 C33.54739587 6.53416931 28.84845583 6.59947164 24.14941406 6.65844727 C20.3627701 6.70603843 16.57621935 6.75837905 12.7896862 6.81407356 C11.34196214 6.83452099 9.89421248 6.85323005 8.44644356 6.87020683 C6.42533693 6.8941979 4.40431241 6.92483356 2.38330078 6.95581055 C1.23080338 6.97135483 0.07830597 6.98689911 -1.1091156 7.00291443 C-3.62672738 6.86995914 -3.62672738 6.86995914 -4.69702148 8.16113281 C-4.79556571 9.75176591 -4.82500842 11.34674759 -4.82641602 12.94042969 C-4.83114426 14.46706238 -4.83114426 14.46706238 -4.83596802 16.02453613 C-4.83394379 17.13180054 -4.83191956 18.23906494 -4.82983398 19.37988281 C-4.83079071 20.50809448 -4.83174744 21.63630615 -4.83273315 22.79870605 C-4.83341516 25.18953507 -4.83155945 27.58036592 -4.82739258 29.97119141 C-4.82204464 33.64522432 -4.82733691 37.31913498 -4.83374023 40.99316406 C-4.83307946 43.30957058 -4.8317983 45.62597703 -4.82983398 47.94238281 C-4.83185822 49.04964722 -4.83388245 50.15691162 -4.83596802 51.29772949 C-4.83281586 52.31548462 -4.8296637 53.33323975 -4.82641602 54.38183594 C-4.82562042 55.28260864 -4.82482483 56.18338135 -4.82400513 57.1114502 C-4.92446754 59.1543635 -4.92446754 59.1543635 -3.69702148 60.16113281 C-0.7816412 60.66155428 -0.7816412 60.66155428 2.30297852 60.16113281 C3.3606959 58.53048518 4.35570897 56.85832408 5.30297852 55.16113281 C9.53444663 52.13865559 13.09006505 51.60922765 18.11157227 52.39941406 C22.15438992 53.80467154 24.37553258 56.41452442 26.30297852 60.16113281 C27.38722153 63.93016805 27.05032932 66.7084172 25.26000977 70.18847656 C22.61108371 73.81683746 20.27860981 75.58184565 15.80297852 76.28613281 C11.61705509 76.44142845 8.80645183 75.55374873 5.30297852 73.16113281 C3.30297852 70.16113281 3.30297852 70.16113281 3.30297852 67.16113281 C2.25110352 67.20238281 1.19922852 67.24363281 0.11547852 67.28613281 C-3.5144587 67.16711848 -5.5593656 66.90427497 -8.69702148 65.16113281 C-11.59051156 62.04783801 -12.07467774 59.94139851 -12.08520508 55.73754883 C-12.09466156 54.65284805 -12.10411804 53.56814728 -12.11386108 52.45057678 C-12.10778839 51.28384933 -12.1017157 50.11712189 -12.09545898 48.91503906 C-12.09832916 47.71177475 -12.10119934 46.50851044 -12.10415649 45.26878357 C-12.10619782 42.72435028 -12.10066323 40.17990131 -12.08813477 37.63549805 C-12.07209711 33.74199263 -12.08797502 29.84952756 -12.10717773 25.95605469 C-12.10519504 23.48404719 -12.10135083 21.01204034 -12.09545898 18.54003906 C-12.10153168 17.37533585 -12.10760437 16.21063263 -12.11386108 15.01063538 C-12.1044046 13.92278244 -12.09494812 12.8349295 -12.08520508 11.71411133 C-12.0828183 10.76021011 -12.08043152 9.8063089 -12.07797241 8.82350159 C-11.62319665 5.64518986 -10.56736274 3.74970465 -8.69702148 1.16113281 C-5.79234295 -0.29120645 -3.24471627 0.01775495 0 0 Z " fill="#F4FBFE" transform="translate(45.697021484375,19.8388671875)"/>
<path d="M0 0 C1.9375 1.75 1.9375 1.75 3 4 C2.87126043 7.15411935 2.55207235 9.1994951 0.75 11.8125 C-1.58992192 13.40030416 -3.16582395 13.86503924 -6 14 C-9.48634601 12.37844371 -10.84302194 11.23546708 -13 8 C-13.375 5.5625 -13.375 5.5625 -13 3 C-8.92135027 -2.06315139 -5.88473646 -2.5745722 0 0 Z " fill="#02AFEF" transform="translate(65,78)"/>
</svg>
