<?xml version="1.0" encoding="UTF-8"?>
<svg version="1.1" xmlns="http://www.w3.org/2000/svg" width="860" height="870">
<path d="M0 0 C9.14131813 0.00231918 18.2826344 0.00255457 27.42395274 0.00148381 C28.08475178 0.00140742 28.74555081 0.00133104 29.42637406 0.00125234 C32.11122019 0.0009408 34.79606632 0.00062238 37.48091244 0.00029257 C62.34409411 -0.00272505 87.20727209 -0.00005568 112.07045318 0.00538947 C134.06412055 0.01016936 156.05778213 0.00967349 178.05144946 0.00492848 C202.98732344 -0.00043386 227.92319425 -0.00254856 252.85906873 0.00054074 C255.51627616 0.00085921 258.17348359 0.00117358 260.83069102 0.00148381 C262.79034024 0.00171522 262.79034024 0.00171522 264.78957833 0.00195131 C273.94035942 0.00281031 283.09113844 0.00136771 292.2419192 -0.00099575 C303.35838953 -0.00380514 314.4748528 -0.00302991 325.59132232 0.002285 C331.24681088 0.00490099 336.90228768 0.00596239 342.55777613 0.00263584 C347.74323633 -0.00036837 352.92867398 0.0013334 358.11413217 0.0066134 C359.9772378 0.00771965 361.84034539 0.00718684 363.70344974 0.00473761 C372.87718755 -0.00638782 382.02488804 0.10624292 391.18828551 0.5690173 C391.94054747 0.60619122 392.69280942 0.64336514 393.4678672 0.68166554 C417.29019371 2.02164249 417.29019371 2.02164249 425.01067797 10.13529957 C425.67067797 10.76178395 426.33067797 11.38826832 427.01067797 12.03373707 C429.21945633 14.28434835 431.11627542 16.61446112 433.01067797 19.13529957 C434.01227954 20.4578777 434.01227954 20.4578777 435.03411547 21.80717457 C439.98433297 29.7679325 440.52527792 36.87588871 440.68925158 46.05995167 C440.72195586 47.328811 440.75466014 48.59767034 440.78835545 49.90497995 C441.14413046 64.35830812 441.18563233 78.81755971 441.21128659 93.27454103 C441.21947842 97.30006718 441.23311784 101.32557598 441.24599902 105.35108937 C441.27037848 113.22842644 441.28991694 121.10576812 441.30775176 128.98312243 C441.32908472 138.31805352 441.35545276 147.65296867 441.38192323 156.98788636 C441.42949619 173.82298538 441.4726925 190.65809274 441.51336352 207.49320973 C441.55194138 223.46001596 441.59339518 239.42681081 441.63836352 255.39360035 C441.64385605 257.34838164 441.64934751 259.30316294 441.65483789 261.25794423 C441.65755312 262.22434913 441.66026835 263.19075402 441.66306585 264.18644392 C441.66577859 265.1519943 441.66849133 266.11754468 441.67128627 267.11235417 C441.67399686 268.07686092 441.67670745 269.04136768 441.67950018 270.03510191 C441.7822623 306.63942269 441.86932959 343.24374516 441.93711208 379.84814795 C441.97492673 400.22369429 442.02109425 420.59916606 442.08596202 440.97464552 C442.13297005 455.77246039 442.16964394 470.57026883 442.19547639 485.36813617 C442.21119062 494.1638586 442.23538471 502.95946311 442.27172625 511.75512496 C442.29525201 517.65294911 442.30758674 523.55073076 442.31114426 529.44860051 C442.31348609 532.80332651 442.32215719 536.15769423 442.34117071 539.51238955 C442.47378088 563.79487547 442.3800519 586.4598614 425.01067797 605.13529957 C414.02490171 615.46302601 399.12762061 617.38814913 384.88567797 620.01029957 C361.40249831 624.34640826 340.19569283 631.05689632 322.01067797 647.13529957 C320.76737719 648.21617848 320.76737719 648.21617848 319.49895922 649.31889332 C316.96760861 651.55563039 314.481176 653.83161974 312.01067797 656.13529957 C311.2707561 656.82108082 310.53083422 657.50686207 309.76849047 658.21342457 C293.53677428 673.8097355 281.07453949 693.83376686 268.63567797 712.44779957 C255.76566267 731.70671499 242.78191192 750.68147676 227.11614672 767.80326832 C225.24885499 769.87149311 223.47428536 771.989349 221.69817797 774.13529957 C213.18261281 783.82813181 202.85589299 791.54273655 190.38567797 795.19779957 C183.3894349 795.06823951 177.87594184 793.39886627 172.69817797 788.57279957 C159.91356811 774.34185 161.57482122 754.48711512 160.96624438 736.50346363 C160.88310569 734.19252219 160.7997041 731.8815902 160.71605555 729.57066716 C159.88923828 706.26860052 159.3192359 682.96056899 158.79824464 659.64998902 C158.66640547 653.79120372 158.52985161 647.93252792 158.3938872 642.07383717 C158.13931534 631.07544083 157.88872708 620.07695785 157.63972692 609.07843412 C157.35512231 596.51632869 157.06583784 583.95433224 156.77624265 571.39234103 C156.18266968 545.64010839 155.59470593 519.88775033 155.01067797 494.13529957 C153.73881137 494.05816731 153.73881137 494.05816731 152.44125048 493.97947682 C149.23785514 493.78272327 146.03479296 493.58131238 142.83187548 493.37693775 C141.45637834 493.29008366 140.08076899 493.20498521 138.70504443 493.1218108 C95.26706611 490.48848608 54.16733975 474.94185996 22.11224047 445.08451832 C20.2314013 443.34002251 18.30449766 441.7006239 16.32317797 440.07279957 C-6.0751864 420.9908936 -20.76949354 391.6294442 -29.30182203 364.01029957 C-29.53232251 363.27239186 -29.762823 362.53448414 -30.00030835 361.77421559 C-34.21406603 347.37501794 -35.54330077 333.19043796 -35.42682203 318.26029957 C-35.42344831 317.4149062 -35.42007459 316.56951283 -35.41659864 315.69850148 C-35.21770098 281.06387036 -28.73541469 239.20789229 -4.98932203 212.13529957 C0.06823838 208.53665082 4.83088247 208.80709342 10.80364672 209.49076832 C18.0495162 210.94700275 25.12529966 213.39498005 30.01067797 219.13529957 C34.029737 231.19247664 28.84221706 242.26016107 24.12005297 253.19828785 C9.72082301 286.59913323 6.32100829 321.55121472 19.01067797 356.13529957 C19.39095141 357.17815113 19.77122485 358.2210027 20.16302172 359.29545582 C26.65568681 375.88782214 36.83397344 390.24111244 49.01067797 403.13529957 C49.7351311 403.93580738 50.45958422 404.7363152 51.20599047 405.56108082 C73.32274002 429.06481297 107.76846882 444.38628966 139.85833422 446.37358082 C171.90032096 447.22533467 206.28633803 435.66708108 231.01067797 415.13529957 C232.07161238 414.28601196 233.13282853 413.43707622 234.19427172 412.58842457 C261.56418178 390.39059331 275.47752468 359.57861986 279.25677172 324.87553395 C282.30570173 293.12921886 273.8820545 261.96291343 255.01067797 236.13529957 C254.36614672 235.2510027 253.72161547 234.36670582 253.05755297 233.45561207 C239.46283578 215.71616402 221.67141517 203.81606497 202.84148852 192.27348316 C201.21072546 191.25966567 199.60839093 190.20044154 198.01067797 189.13529957 C198.64293631 174.56174489 204.62865353 161.38656804 215.01067797 151.13529957 C218.54407028 149.36860342 222.25500642 150.2977252 226.01067797 151.13529957 C229.05075262 152.42042204 231.74729357 154.08942583 234.51067797 155.88529957 C235.27968432 156.37047047 236.04869067 156.85564137 236.84100024 157.35551441 C244.61777616 162.35379329 251.94983211 167.91092275 259.17278735 173.67192066 C260.77946501 174.95120147 262.40164827 176.21095924 264.02630297 177.46733082 C296.09919859 202.74114769 320.93694385 241.84275333 325.80918567 282.90415943 C326.17024736 286.90222383 326.19408365 290.89660195 326.21380297 294.90873707 C326.21950305 295.83135334 326.22520312 296.75396961 326.23107592 297.70454396 C326.24047939 299.65264243 326.24704128 301.60075647 326.25091235 303.54887379 C326.26053619 306.46730447 326.29157045 309.38500484 326.32317797 312.30326832 C326.41624869 328.51444735 324.39719821 343.65491355 319.94817797 359.26029957 C319.6514519 360.30379566 319.35472583 361.34729176 319.04900805 362.42240895 C305.83101484 407.18815254 276.37894357 447.83683742 235.08977954 470.48539723 C211.31835612 483.13529957 211.31835612 483.13529957 206.01067797 483.13529957 C206.4713379 519.20054983 207.92416232 555.1911669 209.69845549 591.21038008 C210.05039515 598.36173472 210.39346033 605.51350837 210.73632113 612.665303 C212.270628 644.90562703 212.270628 644.90562703 214.01067797 677.13529957 C219.78529862 672.96452676 225.04855924 668.4924551 230.19817797 663.57279957 C230.93286303 662.87678639 231.66754809 662.1807732 232.42449633 661.46366871 C237.5539367 656.58354909 242.60381948 651.62827486 247.54851977 646.56083668 C250.15790257 643.90438998 252.8318297 641.4027595 255.66302172 638.98295582 C261.23313048 634.16408102 266.34156298 628.87465165 271.51067797 623.63529957 C283.25964509 611.72668942 283.25964509 611.72668942 289.32317797 606.60404957 C291.13902537 605.0235898 292.82557865 603.35375478 294.51067797 601.63529957 C306.2131183 589.80195947 319.72452507 579.63252303 334.01067797 571.13529957 C334.89360522 570.60742848 334.89360522 570.60742848 335.79436938 570.06889332 C346.79265046 563.59474904 358.30740875 559.63158609 370.53802172 556.12358082 C371.56024829 555.81807301 372.58247485 555.5125652 373.63567797 555.19779957 C374.4941936 554.96190113 375.35270922 554.7260027 376.23724047 554.48295582 C380.75005936 552.29010721 384.15334406 550.3898308 387.01067797 546.13529957 C388.23128792 540.19644161 388.06110265 534.31610756 387.97944323 528.27516163 C387.98364878 526.41966616 387.99136733 524.56417588 388.00229464 522.70870782 C388.02213001 517.6110632 387.99205155 512.51474412 387.95386199 507.41724885 C387.92138277 501.91861307 387.93509091 496.42007003 387.94315783 490.92137135 C387.95176078 480.1459999 387.91803108 469.37115227 387.87068157 458.59589779 C387.81737393 446.03706363 387.8084933 433.47831677 387.80212513 420.91938546 C387.78948757 398.49465611 387.74045449 376.070155 387.66912524 353.64555348 C387.60005924 331.91378558 387.5503689 310.18210606 387.52557055 288.45024098 C387.52480141 287.78179272 387.52403226 287.11334446 387.52323981 286.42464019 C387.51629354 280.37719166 387.50952213 274.32974295 387.50291802 268.28229403 C387.47598381 243.79317634 387.43528782 219.30407633 387.38958422 194.81498707 C387.38727822 193.57516801 387.38497221 192.33534896 387.38259633 191.05795962 C387.35332957 175.53059908 387.31708294 160.00327706 387.2701327 144.47595967 C387.25720203 140.15667306 387.24637323 135.8373899 387.23754947 131.518093 C387.22723203 126.52481304 387.21230543 121.53156744 387.19387511 116.53831103 C387.1879707 114.74610387 387.18358145 112.95389082 387.1809914 111.1616758 C387.16623881 101.72213715 386.99267435 92.30707107 386.55839125 82.87668026 C386.51929961 82.01361202 386.48020797 81.15054378 386.43993174 80.26132196 C385.85291335 67.34612731 385.85291335 67.34612731 382.01067797 55.13529957 C376.22051383 50.75355373 369.66224963 50.89324118 362.68877093 50.58325947 C361.76461531 50.54119093 360.84045969 50.4991224 359.88829936 50.45577905 C348.9808402 49.99838309 338.07650753 49.97701025 327.16119067 49.96794117 C324.82594316 49.96247924 322.49069657 49.95661409 320.15545098 49.95038546 C313.79751091 49.93469834 307.4395746 49.92507289 301.08162133 49.91662062 C297.0086823 49.91092326 292.93575012 49.90283006 288.86281649 49.89413822 C288.17504219 49.89267123 287.48726789 49.89120423 286.77865195 49.88969277 C285.37541623 49.88669179 283.97218052 49.88368755 282.56894482 49.88068011 C264.50843284 49.84239274 246.44790717 49.81718405 228.38736982 49.79450301 C226.04670896 49.79155559 223.70604816 49.78856598 221.36538736 49.78556503 C191.53012076 49.74740116 161.69484873 49.713961 131.85956526 49.69230587 C124.29763135 49.6868129 116.73569761 49.6811131 109.17376391 49.67533863 C108.33831311 49.67470621 107.50286231 49.67407378 106.64209482 49.67342219 C79.51822553 49.65271373 52.39447542 49.60669128 25.27066674 49.54668595 C-2.65639377 49.48501653 -30.58339034 49.44609457 -58.51051996 49.43680263 C-62.45467173 49.43548601 -66.39882336 49.43392409 -70.34297498 49.43222035 C-71.50719078 49.43173216 -71.50719078 49.43173216 -72.69492608 49.4312341 C-85.17057036 49.42536435 -97.64605062 49.39582176 -110.12163274 49.35751413 C-122.65557952 49.31957416 -135.18934524 49.30737785 -147.72334351 49.32127673 C-154.50994698 49.32810744 -161.29601138 49.32286445 -168.08254178 49.28740299 C-174.29761983 49.25518747 -180.51182986 49.25541687 -186.72693004 49.28122003 C-188.97215811 49.28486659 -191.21744365 49.27672315 -193.46257379 49.25543851 C-207.46913034 49.1306743 -218.0629941 49.5831676 -228.73142703 59.74795187 C-241.38046223 73.12219875 -239.1844889 92.41585486 -239.48932203 109.57279957 C-239.50922193 110.63467488 -239.52912183 111.69655018 -239.54962476 112.79060353 C-240.17765629 146.44741199 -240.54440542 180.10851467 -240.89156373 213.76917256 C-240.95675305 220.07283732 -241.02463818 226.37646624 -241.09455331 232.6800803 C-241.81515474 297.75503348 -242.15211647 362.83305913 -242.26413949 427.91178978 C-242.26788635 430.07443801 -242.27164795 432.23708621 -242.27542432 434.39973439 C-242.27728437 435.46792823 -242.27914442 436.53612208 -242.28106083 437.63668544 C-242.29515302 445.15008806 -242.31959649 452.66341396 -242.3484834 460.17677296 C-242.38378549 469.40895372 -242.40452247 478.64103291 -242.40724917 487.87328292 C-242.4090211 492.64429859 -242.41718421 497.41507435 -242.44265302 502.18602742 C-242.46602328 506.61157467 -242.47017737 511.03673838 -242.46001073 515.46233178 C-242.45954371 517.06169018 -242.46571965 518.66106902 -242.47961183 520.26036716 C-242.59190555 533.9555801 -241.74572836 549.52520768 -231.98932203 560.13529957 C-227.41757994 563.94806104 -223.25946689 564.37388869 -217.47760328 564.68608082 C-216.72868314 564.72791996 -215.979763 564.7697591 -215.20814832 564.8128661 C-207.32227555 565.22020595 -199.44098015 565.32142327 -191.54571851 565.32060231 C-189.13287268 565.32284034 -186.72045004 565.34124665 -184.3076814 565.35990895 C-182.75755272 565.36283521 -181.20742193 565.36482512 -179.65729078 565.36576832 C-178.94380979 565.37295384 -178.2303288 565.38013935 -177.49522718 565.38754261 C-172.40674447 565.36850957 -172.40674447 565.36850957 -167.98932203 563.13529957 C-166.6985697 561.22261443 -166.6985697 561.22261443 -165.76275953 558.90873707 C-165.37620191 558.04957691 -164.98964429 557.19041676 -164.59137281 556.30522145 C-164.18644605 555.38289723 -163.78151929 554.46057301 -163.36432203 553.51029957 C-156.24670977 538.02414877 -148.12647 525.1377352 -135.98932203 513.13529957 C-135.28678296 512.41084645 -134.5842439 511.68639332 -133.86041578 510.93998707 C-112.9741832 490.74859981 -81.77943312 481.69232438 -53.3714021 481.8350066 C-20.07051736 482.57097439 7.66120112 496.38343515 30.49505297 520.21342457 C35.83130015 526.00919788 40.08625979 532.32326747 44.01067797 539.13529957 C44.37242114 539.75453297 44.7341643 540.37376637 45.10686938 541.01176441 C59.04149301 565.34536091 63.76537855 596.88198005 56.84905688 624.19169606 C48.27870987 654.58703767 28.59606858 681.38224969 1.08929126 697.24320973 C-25.50954048 712.0013981 -56.53341202 716.99481579 -86.03619703 708.54936207 C-102.80636751 703.51831093 -117.62726424 695.39225346 -130.98932203 684.13529957 C-131.88264234 683.39408863 -132.77596265 682.6528777 -133.69635328 681.88920582 C-152.37603353 665.79196984 -162.52366569 645.112798 -169.98932203 622.13529957 C-171.13594312 622.11548023 -172.28256421 622.0956609 -173.4639314 622.07524098 C-250.9703783 620.68928227 -250.9703783 620.68928227 -273.98932203 600.13529957 C-274.76147046 599.4572527 -275.5336189 598.77920582 -276.32916578 598.08061207 C-282.56534262 592.26018035 -286.930873 585.59312491 -290.98932203 578.13529957 C-291.47908067 577.29490574 -291.96883931 576.45451191 -292.47343912 575.5886516 C-296.62575429 568.03860097 -297.84812323 562.17940003 -297.71757825 553.63101185 C-297.72341037 552.42842985 -297.72924248 551.22584786 -297.73525133 549.98682398 C-297.74529385 546.67859487 -297.72869373 543.37252175 -297.7003748 540.06453491 C-297.6763317 536.4771782 -297.68734456 532.88989782 -297.69386609 529.30249012 C-297.70041977 523.06591126 -297.68488368 516.82970153 -297.65426763 510.59319866 C-297.60926486 501.425227 -297.59772724 492.25743424 -297.59328505 483.08936413 C-297.58501447 468.01140037 -297.54928858 452.93362855 -297.49689038 437.85575856 C-297.4472644 423.56116139 -297.41109178 409.26664444 -297.39435132 394.97196949 C-297.39332927 394.1085529 -297.39230722 393.24513631 -297.39125419 392.35555559 C-297.38717283 388.87421006 -297.38317342 385.39286446 -297.37927983 381.91151872 C-297.30306414 314.28849933 -297.03179246 246.66614541 -296.57044934 179.04465449 C-296.53995512 174.57328813 -296.5103173 170.10191737 -296.48147786 165.63054003 C-295.65310816 37.46365667 -295.65310816 37.46365667 -277.32916578 18.37748707 C-273.7337485 14.93212894 -270.07962385 11.96857611 -265.98932203 9.13529957 C-264.81865186 8.23243214 -264.81865186 8.23243214 -263.62433179 7.31132496 C-254.25710024 1.09720528 -245.17583628 1.23158536 -234.23955568 1.25213803 C-232.2810672 1.25399007 -232.2810672 1.25399007 -230.2830133 1.25587953 C-229.2669105 1.25719555 -229.2669105 1.25719555 -228.23028037 1.25853816 C-209.21874724 1.2748458 -190.20824064 1.16709991 -171.19850476 0.90901173 C-170.39834935 0.89821464 -169.59819394 0.88741754 -168.7737914 0.87629326 C-167.12520568 0.85403497 -165.47662026 0.83175492 -163.82803512 0.80945396 C-162.99581831 0.79819729 -162.16360151 0.78694062 -161.30616601 0.77534283 C-160.04321108 0.75823733 -160.04321108 0.75823733 -158.75474191 0.74078627 C-105.83690445 0.02927257 -52.92181524 -0.01380875 0 0 Z M-105.73932203 548.32279957 C-120.97474922 564.73309801 -124.83480063 583.51723716 -124.15973218 605.21586598 C-123.25827396 620.65947255 -115.48592505 635.62670935 -104.82135328 646.63529957 C-89.18933056 660.43460238 -71.87165673 666.13815077 -51.29107984 665.27885426 C-33.22511753 664.15212687 -19.48958426 656.95320674 -6.98932203 644.13529957 C-5.98965406 643.14916676 -5.98965406 643.14916676 -4.96979078 642.14311207 C4.43928875 632.24552503 9.38959716 620.33056926 12.01067797 607.13529957 C12.18470141 606.29869801 12.35872485 605.46209645 12.53802172 604.60014332 C15.03473858 588.24524525 10.05426546 571.23166605 0.94036547 557.75639332 C-9.55284267 543.50347295 -23.88943084 532.78115743 -41.60650953 529.47904957 C-65.959286 525.96586214 -87.39502013 531.69958778 -105.73932203 548.32279957 Z " fill="#FFFFFF" transform="translate(387.9893220253289,60.86470042914152)"/>
</svg>
